<?xml version="1.0" encoding="UTF-8"?>
<!DOCTYPE svg PUBLIC "-//W3C//DTD SVG 1.1//EN" "http://www.w3.org/Graphics/SVG/1.1/DTD/svg11.dtd">
<!-- Creator: CorelDRAW 2026 -->
<svg xmlns="http://www.w3.org/2000/svg" xml:space="preserve" width="40cm" height="7.89173cm" version="1.1" style="shape-rendering:geometricPrecision; text-rendering:geometricPrecision; image-rendering:optimizeQuality; fill-rule:evenodd; clip-rule:evenodd"
viewBox="0 0 579675 114366"
 xmlns:xlink="http://www.w3.org/1999/xlink"
 xmlns:xodm="http://www.corel.com/coreldraw/odm/2003">
 <defs>
  <style type="text/css">
   <![CDATA[
    .fil0 {fill:#E6E6E6;fill-rule:nonzero}
   ]]>
  </style>
 </defs>
 <g id="Camada_x0020_1">
  <metadata id="CorelCorpID_0Corel-Layer"/>
  <path id="storeLogoIcon.0f542fa4.svg" class="fil0" d="M26354 52943c2768,-339 4740,-781 5933,-1310 2134,-898 3209,-2312 3209,-4225 0,-2327 -824,-3932 -2458,-4816 -1634,-882 -4048,-1324 -7214,-1324 -3562,0 -6080,868 -7552,2606 -1060,1281 -1767,3018 -2121,5211l-14325 0c309,-4976 1707,-9054 4182,-12249 3946,-5006 10717,-7509 20302,-7509 6242,0 11792,1237 16636,3696 4844,2473 7274,7125 7274,13972l0 26058c0,1811 28,3990 103,6567 103,1942 397,3268 883,3959 485,693 1221,1267 2194,1724l0 2194 -16136 0c-457,-1148 -766,-2223 -943,-3224 -176,-1016 -308,-2150 -412,-3431 -2061,2223 -4431,4123 -7125,5683 -3209,1841 -6846,2768 -10910,2768 -5167,0 -9451,-1472 -12808,-4401 -3372,-2930 -5064,-7097 -5064,-12485 0,-6979 2708,-12043 8141,-15165 2974,-1707 7347,-2915 13117,-3651l5095 -647zm9083 6934c-956,589 -1913,1075 -2885,1429 -971,367 -2296,706 -3990,1016l-3385 617c-3166,561 -5448,1237 -6832,2033 -2341,1354 -3504,3459 -3504,6301 0,2531 706,4372 2150,5491 1428,1133 3165,1694 5211,1694 3239,0 6227,-943 8966,-2812 2738,-1869 4151,-5300 4255,-10262l13 -5507zm98848 -28974c2429,973 4639,2680 6626,5109 1590,1988 2679,4417 3224,7304 339,1913 515,4710 515,8391l-103 35806 -15208 0 0 -36174c0,-2149 -354,-3931 -1045,-5315 -1325,-2635 -3754,-3960 -7302,-3960 -4108,0 -6935,1707 -8495,5109 -794,1811 -1193,3975 -1193,6523l0 33818 -14958 0 0 -33833c0,-3372 -338,-5816 -1044,-7347 -1252,-2753 -3696,-4108 -7347,-4108 -4240,0 -7097,1370 -8554,4108 -794,1560 -1193,3886 -1193,6978l0 34187 -15061 0 0 -56697 14429 0 0 8288c1840,-2945 3577,-5049 5211,-6301 2885,-2222 6626,-3342 11205,-3342 4343,0 7847,958 10527,2872 2149,1767 3784,4048 4902,6831 1944,-3327 4358,-5785 7243,-7347 3064,-1560 6464,-2341 10219,-2341 2518,-15 4976,471 7405,1443zm61247 943c3960,1782 7228,4579 9820,8406 2326,3372 3828,7289 4520,11749 397,2606 559,6376 485,11278l-41370 0c235,5697 2209,9703 5949,11984 2267,1428 4990,2136 8186,2136 3385,0 6139,-868 8244,-2607 1148,-942 2179,-2237 3062,-3916l15165 0c-399,3372 -2238,6788 -5507,10262 -5094,5521 -12219,8290 -21377,8290 -7552,0 -14236,-2327 -20008,-6994 -5771,-4652 -8672,-12234 -8672,-22746 0,-9835 2607,-17387 7833,-22644 5211,-5256 11984,-7876 20317,-7876 4932,15 9393,913 13354,2680zm-22218 12823c-2105,2164 -3415,5094 -3959,8789l25588 0c-265,-3946 -1590,-6934 -3960,-8980 -2371,-2046 -5300,-3062 -8804,-3062 -3813,13 -6773,1089 -8864,3253zm76308 -15296c192,15 619,44 1281,73l0 15223c-942,-103 -1765,-176 -2502,-205 -738,-30 -1325,-59 -1767,-59 -5977,0 -9982,1944 -12043,5845 -1148,2194 -1722,5565 -1722,10100l0 27149 -14959 0 0 -56800 14178 0 0 9908c2296,-3784 4300,-6374 5992,-7759 2783,-2326 6389,-3489 10836,-3489 280,-15 516,-15 706,15zm11395 235l15061 0 0 57890 -15061 0 0 -57890zm61394 21467c-280,-2121 -986,-4035 -2149,-5727 -1664,-2298 -4270,-3431 -7789,-3431 -5021,0 -8452,2488 -10292,7449 -971,2635 -1457,6139 -1457,10498 0,4151 486,7493 1457,10025 1782,4726 5124,7082 10027,7082 3489,0 5947,-928 7420,-2812 1457,-1870 2356,-4300 2665,-7302l15164 0c-353,4520 -1987,8789 -4902,12823 -4667,6493 -11557,9747 -20715,9747 -9142,0 -15870,-2710 -20185,-8128 -4313,-5418 -6464,-12455 -6464,-21083 0,-9746 2386,-17329 7140,-22746 4756,-5418 11337,-8127 19715,-8127 7125,0 12955,1590 17505,4799 4535,3195 7229,8849 8053,16932l-15194 0zm48083 1869c2769,-339 4743,-781 5933,-1310 2137,-898 3212,-2312 3212,-4225 0,-2327 -825,-3932 -2458,-4816 -1637,-882 -4050,-1324 -7216,-1324 -3563,0 -6080,868 -7552,2606 -1060,1281 -1768,3018 -2119,5211l-14326 0c309,-4976 1707,-9054 4196,-12249 3946,-5006 10717,-7509 20302,-7509 6245,0 11795,1237 16638,3696 4860,2473 7287,7125 7287,13972l0 26058c0,1811 28,3990 103,6567 104,1942 397,3268 883,3959 486,693 1223,1267 2194,1724l0 2194 -16165 0c-456,-1148 -764,-2223 -943,-3224 -175,-1016 -308,-2150 -411,-3431 -2063,2223 -4432,4123 -7127,5683 -3210,1841 -6848,2768 -10908,2768 -5169,0 -9439,-1472 -12811,-4401 -3372,-2930 -5065,-7097 -5065,-12485 0,-6979 2710,-12043 8142,-15165 2974,-1707 7345,-2915 13132,-3651l5079 -647zm9070 6934c-944,589 -1915,1075 -2888,1429 -968,367 -2295,706 -3989,1016l-3385 617c-3166,561 -5449,1237 -6832,2033 -2341,1354 -3503,3459 -3503,6301 0,2531 708,4372 2148,5491 1429,1133 3166,1694 5214,1694 3253,0 6226,-943 8964,-2812 2738,-1869 4152,-5300 4256,-10262l15 -5507zm73790 -25926c3724,3077 5579,8171 5579,15296l0 38250 -15225 0 0 -34554c0,-2989 -397,-5285 -1190,-6875 -1444,-2915 -4210,-4372 -8273,-4372 -5007,0 -8438,2134 -10293,6404 -973,2267 -1459,5138 -1459,8657l0 30756 -14853 0 0 -56712 14382 0 0 8288c1902,-2915 3713,-5020 5404,-6301 3049,-2296 6904,-3444 11572,-3444 5861,0 10647,1532 14356,4609zm40972 18992c2770,-339 4743,-781 5933,-1310 2137,-898 3195,-2312 3195,-4225 0,-2327 -821,-3932 -2458,-4816 -1633,-882 -4050,-1324 -7212,-1324 -3563,0 -6083,868 -7555,2606 -1059,1281 -1765,3018 -2106,5211l-14324 0c311,-4976 1707,-9054 4181,-12249 3946,-5006 10718,-7509 20304,-7509 6240,0 11791,1237 16651,3696 4842,2473 7272,7125 7272,13972l0 26058c0,1811 30,3990 104,6567 104,1942 397,3268 883,3959 486,693 1222,1267 2194,1724l0 2194 -16150 0c-458,-1148 -769,-2223 -944,-3224 -174,-1016 -307,-2150 -411,-3431 -2063,2223 -4432,4123 -7127,5683 -3209,1841 -6847,2768 -10912,2768 -5167,0 -9435,-1472 -12808,-4401 -3370,-2930 -5064,-7097 -5064,-12485 0,-6979 2708,-12043 8141,-15165 2973,-1707 7348,-2915 13134,-3651l5079 -647zm9085 6934c-958,589 -1915,1075 -2870,1429 -973,367 -2298,706 -3992,1016l-3385 617c-3166,561 -5450,1237 -6833,2033 -2341,1354 -3503,3459 -3503,6301 0,2531 723,4372 2149,5491 1429,1133 3166,1694 5214,1694 3238,0 6239,-943 8964,-2812 2741,-1869 4152,-5300 4256,-10262l0 -5507zm39381 9482c311,2635 1005,4520 2048,5623 1855,1974 5272,2974 10260,2974 2931,0 5257,-427 6994,-1295 1724,-868 2592,-2165 2592,-3917 0,-1663 -694,-2930 -2091,-3798 -1383,-868 -6566,-2354 -15533,-4475 -6462,-1605 -10997,-3592 -13648,-5992 -2634,-2371 -3960,-5772 -3960,-10217 0,-5241 2063,-9747 6183,-13531 4125,-3769 9939,-5653 17420,-5653 7094,0 12894,1413 17359,4240 4474,2826 7036,7729 7698,14664l-14857 0c-204,-1914 -750,-3416 -1618,-4535 -1633,-2018 -4432,-3034 -8364,-3034 -3238,0 -5550,501 -6919,1517 -1368,1001 -2059,2194 -2059,3548 0,1707 736,2945 2191,3694 1457,796 6626,2165 15504,4123 5918,1385 10350,3490 13309,6301 2916,2842 4374,6405 4374,10689 0,5625 -2105,10219 -6286,13780 -4196,3563 -10675,5345 -19449,5345 -8953,0 -15547,-1886 -19819,-5654 -4270,-3769 -6389,-8568 -6389,-14413l15060 0 0 15zm-542689 -69359l578601 0 0 14606 -578601 0 0 -14606zm0 99761l578601 0 0 14605 -578601 0 0 -14605z"/>
 </g>
</svg>
