<?xml version="1.0" encoding="UTF-8"?>
<!DOCTYPE svg PUBLIC "-//W3C//DTD SVG 1.1//EN" "http://www.w3.org/Graphics/SVG/1.1/DTD/svg11.dtd">
<!-- Creator: CorelDRAW 2026 -->
<svg xmlns="http://www.w3.org/2000/svg" xml:space="preserve" width="40cm" height="14.5655cm" version="1.1" style="shape-rendering:geometricPrecision; text-rendering:geometricPrecision; image-rendering:optimizeQuality; fill-rule:evenodd; clip-rule:evenodd"
viewBox="0 0 2795982 1018118"
 xmlns:xlink="http://www.w3.org/1999/xlink"
 xmlns:xodm="http://www.corel.com/coreldraw/odm/2003">
 <defs>
  <style type="text/css">
   <![CDATA[
    .fil0 {fill:#E6E6E6;fill-rule:nonzero}
   ]]>
  </style>
 </defs>
 <g id="Camada_x0020_1">
  <metadata id="CorelCorpID_0Corel-Layer"/>
  <path class="fil0" d="M537996 998167c-32343,6644 -66212,11631 -101593,14951 -35502,3337 -72240,5001 -110199,5001 -50875,0 -96087,-2978 -135582,-8937 -39696,-5991 -73732,-15048 -102055,-27175l-13 34c-28948,-12364 -50841,-27553 -65649,-45526 -15259,-18523 -22904,-39773 -22904,-63715 0,-23962 7769,-45225 23302,-63764 15018,-17930 37280,-33132 66781,-45591 28808,-12170 63393,-21284 103741,-27322 40034,-5995 85812,-8997 137323,-8997 28818,0 60444,951 94872,2858 33950,1881 70620,4729 109991,8538l9060 877 0 54657 -11363 -1559c-44479,-6105 -83650,-10664 -117505,-13673 -33759,-2999 -62717,-4499 -86853,-4499 -68996,0 -122030,9127 -159233,27373 -17806,8759 -31064,19165 -39746,31194 -8404,11648 -12608,25073 -12608,40266 0,14265 4452,26994 13328,38180 9328,11761 23569,22044 42681,30836 19868,9134 43472,16002 70794,20595 27607,4639 59069,6958 94370,6958 60545,0 125428,-7434 194919,-22292l12107 -2590 0 51682 -7966 1641zm730120 -473789c36382,1961 74348,3531 113381,4646 217699,6209 469786,-1597 668611,-33119 198326,-31446 343565,-86378 348311,-174318l87 -2105c67,-2403 20,-4813 -137,-7200 -4478,-67554 -99649,-115892 -239258,-148686 -140084,-32909 -324778,-50072 -507658,-55284 -134360,-3829 -267774,-1208 -381815,6350l-234 -2537c153335,-18740 347645,-25079 539003,-17629 189145,7363 375442,28212 516491,63875 141473,35770 237587,86565 245801,153791 498,4110 672,8297 509,12538 -74,1924 -238,3842 -486,5740 -10292,79342 -169676,137162 -383127,172859 -213000,35622 -479984,49359 -706128,40549 -77196,-3006 -149654,-8646 -213575,-16936l224 -2534zm526749 89989c58196,-1576 114714,-3953 168605,-7009l241 2534c-89662,12223 -191913,20340 -300884,24377 -300468,11136 -652126,-8682 -932379,-58550 -280704,-49945 -489928,-130174 -504880,-239837 -412,-3033 -679,-6102 -793,-9191 -234,-6369 54,-12662 847,-18844 12180,-94819 143756,-166234 336215,-216253 192054,-49911 444881,-78626 700096,-88081 248977,-9224 500271,-127 699669,25485l84 10 -245 2534c-147879,-10305 -320173,-14067 -494323,-9345 -246216,6678 -496197,30314 -686270,76380 -189630,45958 -319530,114154 -326207,209950 -251,3608 -328,7250 -231,10905l151 3591c6932,122191 197275,198915 458038,243180 261257,44346 593088,56010 882266,48164zm45784 -282622c98009,-11353 162600,-27824 159531,-54326 -6149,-53098 -222991,-83007 -463841,-86357 -87920,-1222 -179061,1128 -264357,7213 -85259,6078 -164658,15902 -229122,29608 -97787,20795 -161124,50400 -158092,89276 3722,47702 99271,81413 232821,103219 170134,27777 401727,36011 584382,29254l174 2537c-66138,6919 -144566,10296 -227599,10299 -161978,3 -341561,-12826 -481846,-37203 -140777,-24460 -242159,-60725 -247063,-107577 -124,-1215 -191,-2420 -191,-3605 0,-2186 191,-4355 563,-6496 8157,-46879 105532,-80771 244971,-102862 138990,-22020 319921,-32480 495789,-32480 180065,0 354885,10962 474017,31680 56447,9545 101570,20571 132269,32627 30026,11789 46440,24714 46440,38384 0,1151 -77,2303 -214,3434 -5038,39857 -98966,63878 -223647,77883 -124179,13947 -278980,18114 -406510,18114 -122037,0 -219178,-3819 -240623,-6527l-13595 -1720 13683 -814c62814,-3742 131107,-6774 199842,-9824 134686,-5971 271132,-12026 372219,-23737zm-1234875 673615l0 -268226 382776 0 0 47200 -270700 0 0 63139 226830 0 0 46842 -226830 0 0 73743 289560 0 0 47200 -401636 0 0 -9897zm495873 0l0 -268226 225749 0c32108,0 61375,730 87813,2182 26321,1446 49520,3621 69602,6513 20350,2902 39288,6821 56802,11752 17676,4974 33996,10999 48944,18054 24350,11477 42741,24935 55166,40359 12943,16069 19410,34100 19410,54065 0,22278 -7501,42430 -22482,60448 -14449,17374 -35793,32570 -64002,45573 -15008,6989 -31255,13020 -48720,18071 -17304,5003 -35803,9030 -55484,12076 -19667,3013 -41620,5275 -65840,6768 -24427,1506 -51053,2263 -79864,2263l-227094 0 0 -9897zm112076 -37303l107982 0c41678,0 77196,-2213 106523,-6638 28738,-4334 51391,-10764 67932,-19289l80 0c17398,-8843 30368,-19102 38889,-30746 8157,-11149 12240,-23761 12240,-37812 0,-12976 -3940,-24524 -11815,-34635 -8297,-10657 -21019,-19992 -38146,-27988 -10704,-5021 -22515,-9271 -35449,-12756 -13143,-3538 -27208,-6252 -42199,-8133l-3 34c-15621,-1931 -35004,-3385 -58119,-4334 -22940,-948 -50282,-1426 -82006,-1426l-65910 0 0 183723zm487304 30381l260485 -261305 99508 0c91016,92663 181942,185417 272912,278123l-127349 0 -70666 -71550 -266309 0 -71861 71550 -113489 0 16769 -16819zm214529 -101754l174040 0 -86963 -87452 -87077 87452zm478790 108676l0 -268226 382775 0 0 47200 -270699 0 0 63139 226830 0 0 46842 -226830 0 0 73743 289560 0 0 47200 -401636 0 0 -9897z"/>
 </g>
</svg>
