<?xml version="1.0" encoding="UTF-8"?>
<!DOCTYPE svg PUBLIC "-//W3C//DTD SVG 1.1//EN" "http://www.w3.org/Graphics/SVG/1.1/DTD/svg11.dtd">
<!-- Creator: CorelDRAW 2026 -->
<svg xmlns="http://www.w3.org/2000/svg" xml:space="preserve" width="40cm" height="14.8687cm" version="1.1" style="shape-rendering:geometricPrecision; text-rendering:geometricPrecision; image-rendering:optimizeQuality; fill-rule:evenodd; clip-rule:evenodd"
viewBox="0 0 579675 215475"
 xmlns:xlink="http://www.w3.org/1999/xlink"
 xmlns:xodm="http://www.corel.com/coreldraw/odm/2003">
 <defs>
  <style type="text/css">
   <![CDATA[
    .fil0 {fill:#E6E6E6}
   ]]>
  </style>
 </defs>
 <g id="Camada_x0020_1">
  <metadata id="CorelCorpID_0Corel-Layer"/>
  <g id="_2875275492336">
   <path class="fil0" d="M98570 19970c4065,0 8072,223 12008,650l-10534 12267c-490,-9 -981,-18 -1473,-18 -42410,0 -76790,33520 -76790,74869 0,31159 19525,57868 47295,69142l29658 -47574 -66260 0 -371 -642 14627 -17032 96036 0 46 0 371 642 -38 44 -88589 103157 -6266 -3713 -462 -800 13649 -21893c-36052,-13049 -61475,-44545 -61475,-81332 0,-48473 44131,-87767 98570,-87767zm44016 -19970l6266 3713 462 800 -13649 21893c36053,13049 61475,44545 61475,81332 0,48473 -44132,87767 -98570,87767 -4065,0 -8072,-223 -12008,-650l10534 -12267c490,9 981,18 1473,18 42410,0 76790,-33520 76790,-74869 0,-31159 -19525,-57868 -47295,-69142l-29658 47574 66260 0 371 642 -14627 17032 -96036 0 -46 0 -371 -643 38 -44 88589 -103157z"/>
   <path class="fil0" d="M523984 72212l14872 0 0 -20314 25947 0 0 20314 14872 0 0 17388 -14872 0 0 73977 -25947 0 0 -73977 -14872 0 0 -17388zm-79695 11051l-55423 0c-29298,0 -36345,19211 -36358,29073 -27,24726 32626,27363 33060,27453l1164 99 -19271 22490 783 -9c4620,-65 11583,-103 19772,47 18880,340 23622,5174 23622,10888 0,5359 -7055,10029 -18356,10029 -13588,0 -21008,-3287 -21008,-9346l0 -663 -23565 -60c-67,599 -84,1189 -84,1766 0,10552 9179,23188 43426,23188 26305,0 43061,-8311 43061,-26816 0,-3985 -1240,-10210 -6527,-15398 -2726,-2702 -9402,-8091 -30616,-8892 -734,-34 -1402,-56 -2035,-69 0,0 3446,-1990 5188,-3012 6950,-4084 14687,-7195 21113,-13183 4515,-4222 7407,-10387 7407,-17483 0,-4670 -1227,-8470 -4062,-13321l18710 0 0 67 0 63463 25947 0 0 -63502 11589 0c7857,0 13087,4738 13087,16770l0 46735 25288 0 0 -52134c0,-21809 -14503,-28251 -29158,-28251l0 1 -20807 0 0 -31295 -25947 0 0 31295 0 70zm-53133 44622c-8110,0 -14822,-6575 -14822,-14359 0,-8130 6356,-14531 14822,-14531 8840,0 14668,6403 14668,13661 0,8306 -6540,15230 -14668,15230zm-75324 -75987l25947 0 0 23039 -25947 0 0 -23039zm0 31176l25947 0 0 80503 -25947 0 0 -80503zm-56165 57464l45567 0 0 23039c-23838,0 -47676,0 -71514,0l0 -111679 25947 0 0 88639z"/>
  </g>
 </g>
</svg>
