<?xml version="1.0" encoding="UTF-8"?>
<!DOCTYPE svg PUBLIC "-//W3C//DTD SVG 1.1//EN" "http://www.w3.org/Graphics/SVG/1.1/DTD/svg11.dtd">
<!-- Creator: CorelDRAW 2026 -->
<svg xmlns="http://www.w3.org/2000/svg" xml:space="preserve" width="60cm" height="22.0401cm" version="1.1" style="shape-rendering:geometricPrecision; text-rendering:geometricPrecision; image-rendering:optimizeQuality; fill-rule:evenodd; clip-rule:evenodd"
viewBox="0 0 2594358 952999"
 xmlns:xlink="http://www.w3.org/1999/xlink"
 xmlns:xodm="http://www.corel.com/coreldraw/odm/2003">
 <defs>
  <style type="text/css">
   <![CDATA[
    .fil0 {fill:#ADB3B8}
    .fil1 {fill:#132D76;fill-rule:nonzero}
    .fil2 {fill:#E46613;fill-rule:nonzero}
   ]]>
  </style>
 </defs>
 <g id="Camada_x0020_1">
  <metadata id="CorelCorpID_0Corel-Layer"/>
  <g id="_2173277044832">
   <path class="fil0" d="M476499 280779l182779 55413 0 107047 0 68 -54682 22579 0 -9 0 -114981 -128097 -38835 0 -31281zm104237 204875l0 1280c0,63873 0,84260 -104237,216065l0 -248947 104237 31602z"/>
   <path class="fil1" d="M1146338 418797c-20336,0 -39018,-3246 -56046,-9739 -17029,-6493 -31851,-15742 -44470,-27748 -12618,-12005 -22418,-26094 -29401,-42265 -6983,-16171 -10474,-33934 -10474,-53290 0,-19356 3491,-37120 10474,-53290 6983,-16171 16844,-30259 29585,-42264 12741,-12006 27687,-21255 44837,-27748 17151,-6493 36017,-9739 56598,-9739 22786,0 43306,3798 61559,11393 18253,7595 33628,18621 46123,33077l-38222 35282c-9310,-9801 -19478,-17089 -30504,-21867 -11026,-4778 -23031,-7166 -36017,-7166 -12496,0 -23889,1960 -34179,5881 -10291,3920 -19172,9555 -26645,16906 -7473,7350 -13231,16048 -17273,26094 -4043,10045 -6064,21194 -6064,33444 0,12005 2021,23031 6064,33076 4042,10046 9801,18805 17273,26278 7473,7473 16293,13169 26462,17089 10168,3920 21377,5880 33628,5880 11761,0 23215,-1899 34363,-5696 11148,-3798 21990,-10229 32525,-19295l33811 42999c-13965,10536 -30197,18621 -48696,24256 -18499,5635 -36936,8453 -55312,8453zm-286741 64706c-8325,12881 -18199,24157 -29218,33744 -5056,44339 -18256,86203 -38058,124070 -6754,8989 -14198,15346 -25104,20136l38 -11 14 -4 52 -16 52 -15 52 -16 52 -15 104 -32 52 -16 52 -16 52 -16 52 -16 52 -16 12 -3 40 -12 52 -16 52 -16 52 -16 52 -16 51 -16 0 0 52 -16 52 -16 52 -16 52 -16 52 -16 38 -12 14 -4 52 -16 52 -16 52 -16 52 -16 52 -16 26 -8 26 -8 52 -16 52 -16 52 -16 52 -16 52 -16 12 -4 40 -13 52 -16 52 -16 155 -49 0 0 259 -82 38 -12 13 -4 52 -16 778 -249 52 -17 0 0c225,-73 450,-146 675,-220l39 -13c212,-70 424,-140 635,-210l78 -26 147 -49 209 -70 16 -5c232,-78 464,-157 696,-237l201 -69 154 -53 70 -24 224 -78 62 -22 320 -112 35 -12 31 -11 224 -79 100 -35 124 -44 231 -82 216 -77 138 -50 85 -31 224 -80 45 -16 293 -106 62 -22 47 -17 21 -7 287 -106 139 -51 215 -80 8 -3 223 -83 123 -46 100 -38 223 -84 30 -11 55 -21 583 -221 68 -26 353 -135 24 -9 327 -126 2 -1 116 -45 222 -86 14 -6 208 -81 144 -57 78 -31 222 -88 52 -21 169 -67 182 -73 39 -16 222 -89 90 -37 131 -53 220 -89 1 0 221 -90 128 -52 93 -38 221 -91 36 -15 185 -76 166 -69 54 -23 221 -92 75 -31 33 -14 317 -133 17 -7 221 -93 112 -47 6 -3 322 -137 21 -9 199 -85 150 -64 70 -30 221 -95 164 -71 56 -24 188 -82 32 -14 220 -96 96 -42 123 -54c2748,-1206 5474,-2501 8174,-3883 10589,-5424 21502,-9546 32557,-12427 20421,-43856 32820,-92200 35305,-143153 1604,-9434 5170,-19488 10437,-27755 -4180,4929 -8080,10170 -11663,15714zm-383098 -255293l227445 68955 0 161827c0,87041 0,196458 -227445,304597 -227445,-108138 -227445,-217556 -227445,-304597l0 -161827 227445 -68955zm104237 139135l0 101876 -104237 -31601 -104237 31601 0 -101876 39502 -11976 0 44327 22436 -6802 0 -44327 42298 -12824 42299 12824 0 44327 22436 6802 0 -44327 39502 11976zm78542 88801l0 10092c0,20596 -4,42752 -4675,65981l-19 101 -61807 34340 10 -24c11797,-28079 11809,-48807 11809,-79703l0 -7745 54682 -23043zm-8421 91333c-13748,47067 -49942,97963 -145256,148872 39966,-50814 63789,-84494 77997,-110729l67258 -38144zm-278594 -61824l0 1280c0,63873 0,84260 104237,216065l0 -248946 -104237 31601zm104237 249420c203218,-96620 203218,-194382 203218,-272152l0 -144589 -203218 -61610 -203218 61610 0 144589c0,77770 0,175533 203218,272152zm328335 -199715c-12156,6923 -25125,12181 -38535,15691l-21823 5714 18082 -13505c4483,-3348 8727,-7071 12680,-11156 3870,-3998 7483,-8368 10790,-13098l8 -11c508,-727 904,-1297 1125,-1622 469,-693 842,-1251 1081,-1621 1780,-2754 3411,-5546 4894,-8366 1509,-2870 2873,-5778 4093,-8715l2795 -6731 8833 10635 159 -135c659,-8559 997,-17209 997,-25937 0,-39749 -6968,-77867 -19725,-113217 -7069,12082 -15676,23128 -25540,32880l-16042 15859 8907 -20737c2208,-5142 4022,-10488 5404,-16002 1353,-5398 2296,-10988 2796,-16738l1 -13c77,-884 134,-1575 163,-1967 60,-835 104,-1504 126,-1944 164,-3275 181,-6508 55,-9693 -128,-3240 -401,-6440 -813,-9594l-945 -7227 12967 4794 96 -270c-20518,-42848 -49928,-80617 -85823,-110954 -91,13958 -2022,27786 -5678,41125l-5964 21756 -2655 -22412c-659,-5556 -1760,-11093 -3321,-16559 -1527,-5351 -3505,-10664 -5948,-15894l-6 -12c-376,-804 -671,-1432 -843,-1785 -366,-753 -662,-1355 -863,-1747 -1495,-2919 -3098,-5727 -4799,-8421 -1730,-2742 -3568,-5377 -5501,-7902l-4432 -5786 13626 -2332 -36 -201c-38280,-26326 -82327,-44871 -129863,-53340 6923,12156 12180,25125 15691,38535l5714 21823 -13505 -18082c-3348,-4483 -7071,-8727 -11156,-12681 -3998,-3870 -8368,-7483 -13098,-10790l-11 -8c-727,-508 -1297,-904 -1623,-1124 -693,-469 -1251,-842 -1621,-1081 -2754,-1780 -5546,-3411 -8366,-4894 -2870,-1509 -5778,-2873 -8715,-4093l-6731 -2795 10635 -8833 -135 -159c-8560,-659 -17209,-997 -25938,-997 -39749,0 -77867,6968 -113217,19725 12082,7069 23128,15676 32880,25541l15859 16042 -20737 -8906c-5141,-2208 -10487,-4023 -16002,-5404 -5398,-1353 -10988,-2296 -16738,-2796l-13 -1c-884,-77 -1575,-134 -1967,-163 -835,-60 -1504,-104 -1944,-126 -3275,-164 -6508,-181 -9693,-55 -3240,128 -6440,401 -9594,813l-7227 945 4794 -12967 -271 -97c-42847,20519 -80616,49928 -110954,85823 13958,91 27786,2022 41125,5678l21756 5963 -22412 2655c-5556,659 -11093,1760 -16559,3321 -5351,1528 -10664,3505 -15893,5948l-12 6c-804,376 -1432,672 -1785,843 -753,366 -1355,662 -1747,863 -2918,1495 -5726,3098 -8421,4799 -2743,1731 -5377,3568 -7902,5501l-5787 4432 -2332 -13626 -201 37c-26326,38280 -44871,82327 -53340,129863 12156,-6923 25125,-12180 38535,-15691l21822 -5714 -18082 13505c-4483,3348 -8727,7071 -12681,11156 -3870,3998 -7483,8368 -10790,13098l-7 11c-508,727 -904,1297 -1125,1622 -469,693 -842,1251 -1081,1621 -1780,2754 -3410,5546 -4893,8366 -1509,2870 -2873,5778 -4093,8715l-2795 6731 -8833 -10635 -160 135c-659,8560 -997,17209 -997,25937 0,39749 6968,77867 19725,113217 7069,-12082 15676,-23128 25541,-32880l16042 -15859 -8907 20737c-2208,5142 -4023,10488 -5404,16002 -1353,5398 -2296,10988 -2796,16738l-1 13c-77,884 -134,1575 -163,1967 -59,835 -104,1504 -125,1944 -165,3275 -181,6508 -55,9693 128,3240 401,6440 813,9594l945 7227 -12967 -4794 -96 271c20518,42847 49928,80616 85823,110954 91,-13958 2022,-27786 5678,-41125l5963 -21756 2655 22412c658,5556 1760,11093 3320,16559 1528,5351 3505,10664 5948,15894l6 12c376,804 671,1432 843,1785 366,753 662,1355 863,1747 1496,2919 3098,5727 4799,8421 1731,2742 3568,5377 5501,7902l4432 5786 -13627 2332 37 201c38280,26326 82327,44871 129863,53340 -6923,-12156 -12180,-25125 -15691,-38535l-5714 -21823 13505 18082c3348,4483 7071,8727 11156,12681 3998,3870 8367,7483 13098,10790l11 8c727,508 1297,904 1623,1124 693,469 1251,842 1621,1081 2754,1780 5546,3411 8366,4894 2870,1509 5778,2873 8715,4093l6732 2795 -10635 8833 135 159c8560,659 17209,997 25937,997 39749,0 77867,-6968 113217,-19725 -12082,-7069 -23128,-15676 -32880,-25541l-15860 -16042 20737 8906c5141,2208 10487,4023 16001,5404 5398,1353 10988,2296 16738,2796l13 1c884,76 1576,134 1968,163 835,60 1504,104 1944,126 3275,164 6508,180 9693,55 3240,-128 6440,-401 9594,-813l7227 -945 -4794 12967 271 97c42847,-20518 80616,-49928 110953,-85823 -13957,-91 -27786,-2022 -41125,-5678l-21756 -5963 22412 -2655c5557,-659 11093,-1760 16560,-3321 5350,-1528 10664,-3505 15893,-5948l12 -6c804,-376 1431,-672 1785,-843 753,-366 1355,-662 1747,-863 2919,-1495 5727,-3098 8421,-4799 2742,-1731 5377,-3568 7902,-5501l5787 -4432 2332 13626 201 -37c26327,-38279 44875,-82324 53340,-129863zm16506 -44677l37 -40 37 -39 0 -1 37 -39 37 -40 37 -40 37 -40 37 -40 28 -29 10 -10 37 -40 37 -40 37 -40 37 -40 37 -40 18 -19 19 -21 37 -40 37 -40 37 -40 37 -40 37 -40 9 -10 28 -30 37 -40 74 -80 37 -40 36 -40 0 0 37 -40 37 -40 37 -40 37 -40 37 -40 27 -30 10 -10 37 -40 37 -40 73 -80 37 -40 18 -20 19 -20 37 -40 36 -41 37 -40 73 -80 10 -10 27 -30 36 -40 37 -40 36 -41 37 -40 36 -41 0 0 158 -175 93 -104 64 -71 157 -175 30 -34 127 -142 123 -138 34 -38 156 -176 60 -67 96 -109 152 -172 4 -5 243 -276 1 -1 67 -77 155 -178 26 -29 129 -149 118 -135 37 -43 154 -179 54 -63 100 -116 146 -169 8 -10 153 -179 83 -97 70 -83 153 -180 21 -24 132 -156 153 -180 153 -181 152 -181 140 -166 12 -15 152 -182 78 -93 74 -88 30 -36 423 -511 150 -183 300 -366 150 -184 73 -89 77 -95c149,-184 298,-368 447,-553l148 -185c198,-247 395,-495 591,-743l147 -186 8 -10 138 -176 147 -187 146 -187c292,-374 583,-751 873,-1129l90 -118 54 -71 144 -190c336,-441 668,-884 1000,-1330l3 -4 142 -192 27 -36 115 -156 3 -6 138 -187 0 0c1794,-2440 3524,-4946 5186,-7517 6444,-9971 13817,-18980 21930,-26989 -4455,-50871 -18812,-98903 -41127,-142161 -3218,-8863 -5081,-19152 -4662,-28769 -1154,6358 -1912,12846 -2243,19438 -768,15290 -3671,29967 -8405,43758 16992,39122 27168,81888 29020,126807 -1374,11047 -4646,20206 -11643,29734 199,-210 398,-421 595,-633zm62647 -67740c14575,-9585 30541,-16633 47186,-20991l21825 -5714 -18085 13506c-4483,3348 -8727,7070 -12680,11154 -3870,3998 -7483,8368 -10791,13098l-17 4 9 6c-505,723 -902,1293 -1124,1623 -469,693 -839,1247 -1081,1621 -1780,2753 -3410,5545 -4893,8365 -1509,2870 -2873,5779 -4093,8717l-2796 6731 -8832 -10633c-637,540 -1270,1086 -1899,1637 477,8086 743,16229 743,24435 0,55745 -11117,108890 -31230,157357 17396,-1006 34729,874 51305,5418l21758 5964 -22415 2654c-5556,658 -11093,1759 -16559,3320 -5351,1528 -10665,3505 -15894,5948l-17 -4 5 10c-799,373 -1427,669 -1785,843 -753,365 -1350,660 -1746,863 -2918,1495 -5726,3097 -8420,4797 -2743,1731 -5378,3568 -7904,5502l-5787 4431 -2332 -13625c-789,144 -1578,293 -2366,450 -28005,55849 -68356,104434 -117486,142166 15605,7832 29706,18143 41813,30390l15861 16044 -20739 -8909c-5141,-2208 -10486,-4023 -16000,-5404 -5398,-1353 -10988,-2296 -16739,-2796l-13 -12 -1 11c-878,-76 -1571,-134 -1967,-163 -835,-60 -1499,-103 -1944,-126 -3275,-165 -6507,-181 -9690,-55 -3240,128 -6442,401 -9596,813l-7227 944 4793 -12966c-773,-277 -1550,-548 -2329,-813 -50814,33591 -109519,56203 -172749,64434 9585,14576 16633,30542 20991,47187l5715 21825 -13506 -18085c-3348,-4483 -7070,-8727 -11155,-12680 -3998,-3870 -8368,-7483 -13098,-10791l-5 -17 -6 9c-723,-505 -1294,-902 -1623,-1125 -693,-469 -1246,-839 -1621,-1081 -2753,-1780 -5545,-3410 -8364,-4893 -2871,-1509 -5779,-2873 -8717,-4093l-6731 -2796 10634 -8832c-540,-637 -1086,-1270 -1638,-1899 -8086,477 -16229,743 -24434,743 -55745,0 -108890,-11118 -157357,-31230 1006,17396 -874,34729 -5418,51305l-5964 21758 -2654 -22415c-658,-5556 -1759,-11093 -3320,-16558 -1528,-5351 -3506,-10665 -5948,-15894l4 -17 -10 5c-373,-799 -669,-1428 -843,-1785 -365,-753 -660,-1350 -863,-1747 -1495,-2918 -3097,-5725 -4797,-8419 -1731,-2743 -3568,-5378 -5502,-7904l-4431 -5787 13625 -2332c-143,-789 -293,-1578 -450,-2366 -55850,-28005 -104433,-68356 -142166,-117486 -7833,15605 -18143,29706 -30390,41813l-16044 15861 8909 -20739c2208,-5141 4023,-10486 5404,-16000 1353,-5398 2296,-10988 2796,-16739l12 -13 -11 -1c76,-878 134,-1571 162,-1968 60,-835 104,-1499 126,-1944 165,-3275 181,-6507 55,-9690 -128,-3240 -401,-6442 -813,-9596l-944 -7227 12966 4793c278,-773 548,-1550 813,-2329 -33591,-50813 -56203,-109518 -64433,-172749 -14576,9585 -30542,16633 -47187,20991l-21825 5714 18085 -13506c4483,-3348 8727,-7070 12680,-11154 3870,-3998 7483,-8368 10791,-13098l17 -4 -10 -6c505,-723 902,-1293 1125,-1623 469,-693 839,-1247 1081,-1621 1780,-2753 3410,-5545 4893,-8365 1509,-2870 2874,-5779 4093,-8717l2796 -6731 8832 10633c637,-540 1270,-1086 1899,-1637 -477,-8086 -743,-16229 -743,-24435 0,-55745 11117,-108890 31230,-157357 -17396,1006 -34729,-874 -51305,-5418l-21758 -5964 22415 -2654c5556,-658 11093,-1759 16558,-3320 5351,-1528 10665,-3505 15895,-5948l16 4 -5 -10c799,-373 1428,-669 1785,-843 753,-365 1350,-660 1747,-863 2918,-1495 5725,-3097 8420,-4797 2742,-1731 5378,-3568 7903,-5502l5787 -4431 2332 13625c790,-144 1578,-293 2366,-450 28005,-55850 68357,-104434 117486,-142166 -15605,-7832 -29706,-18143 -41813,-30389l-15861 -16044 20739 8909c5141,2208 10486,4023 16000,5404 5398,1353 10988,2296 16739,2796l12 12 1 -11c878,76 1571,134 1967,163 835,60 1499,103 1944,126 3274,165 6507,181 9690,55 3240,-128 6442,-401 9596,-813l7227 -944 -4793 12966c774,277 1550,548 2329,813 50813,-33591 109519,-56203 172749,-64434 -9585,-14575 -16633,-30542 -20991,-47187l-5714 -21825 13506 18085c3348,4483 7070,8727 11154,12680 3999,3870 8368,7483 13098,10791l5 17 6 -9c723,505 1294,902 1623,1125 693,469 1246,839 1621,1081 2753,1780 5545,3410 8364,4893 2871,1509 5779,2873 8717,4093l6731 2796 -10634 8832c540,637 1086,1270 1637,1899 8086,-477 16229,-743 24435,-743 55745,0 108890,11118 157357,31230 -1006,-17396 874,-34729 5418,-51305l5964 -21758 2654 22415c658,5556 1759,11093 3320,16558 1528,5351 3505,10665 5948,15894l-4 17 10 -5c373,799 669,1428 843,1785 366,753 660,1350 863,1747 1495,2918 3097,5725 4797,8419 1731,2743 3569,5378 5502,7904l4431 5787 -13625 2332c143,789 293,1578 449,2366 55850,28005 104434,68356 142166,117486 7833,-15605 18143,-29706 30390,-41813l16044 -15861 -8909 20739c-2208,5141 -4023,10486 -5404,16000 -1352,5398 -2296,10988 -2796,16739l-12 13 11 1c-76,878 -134,1571 -163,1968 -60,835 -103,1499 -126,1944 -164,3275 -181,6507 -55,9690 128,3240 401,6442 813,9596l944 7227 -12966 -4793c-277,773 -548,1550 -812,2329 33591,50813 56203,109519 64434,172749zm-406974 -302631l0 0c-2440,-1794 -4946,-3524 -7517,-5186 -9970,-6444 -18979,-13817 -26988,-21929 -50830,4454 -98821,18798 -142051,41083 -8893,3246 -19234,5126 -28895,4703 6363,1156 12856,1915 19453,2246 15290,768 29967,3671 43758,8406 39122,-16992 81890,-27169 126808,-29020 11047,1374 20205,4646 29733,11643 -210,-199 -421,-397 -633,-595l-40 -37 -38 -36 -1 -1 -40 -37 -39 -37 -40 -37 -40 -37 -40 -37 -29 -27 -11 -10 -40 -37 -40 -37 -40 -37 -40 -37 -40 -37 -19 -18 -21 -19 -40 -37 -40 -37 -40 -37 -40 -37 -40 -37 -9 -9 -31 -28 -40 -37 -80 -74 -40 -37 -40 -36 0 0 -40 -37 -40 -37 -40 -37 -40 -37 -40 -37 -30 -27 -10 -10 -40 -37 -40 -37 -80 -73 -40 -37 -20 -18 -20 -19 -40 -37 -41 -36 -40 -37 -80 -73 -10 -9 -30 -28 -40 -36 -40 -37 -41 -36 -40 -37 -41 -36 -274 -246 -5 -5 -71 -64 -176 -157 -33 -30 -143 -127 -138 -123 -38 -34 -176 -157 -67 -59 -110 -96 -172 -152 -5 -4 -177 -156 -101 -88 -254 -222 -29 -25 -260 -227 -24 -20 -43 -38 -179 -154 -63 -54 -116 -100 -169 -146 -10 -8 -179 -153 -97 -83 -83 -70 -179 -153 -361 -306 -181 -153 -58 -49 -122 -103 -166 -140 -15 -12 -182 -152 -93 -78 -89 -74 -182 -151 -19 -16 -163 -134 -128 -106 -54 -45 -183 -150 -54 -45 -129 -106 -18 -14 -349 -285 -90 -73 -95 -77 -184 -149c-246,-198 -492,-397 -740,-594l-160 -128 -26 -20 -186 -147 -184 -146 -6 -4c-185,-146 -371,-292 -556,-438l-188 -147 -45 -35 -142 -111 -157 -122 -31 -24 -188 -145c-251,-194 -503,-387 -755,-580l-189 -144 -41 -31 -149 -112 -154 -117 -36 -27 -381 -287 -191 -143 0 0 -191 -142 -187 -140 -4 -3 -192 -142 -36 -27 -156 -115 -5 -4 -187 -138zm40234 2310c44339,5056 86203,18256 124071,38058 8988,6754 15345,14197 20134,25103 -109,-364 -218,-728 -329,-1092l-16 -52 -28 -90 -4 -14 -16 -52 -16 -52 -16 -52 -16 -52 -48 -156 -16 -52 -16 -52 -16 -52 -16 -52 -3 -12 -13 -40 -16 -52 -16 -52 -16 -51 -16 -52 -16 -52 0 0 -16 -52 -16 -52 -16 -52 -16 -52 -16 -52 -12 -38 -4 -13 -16 -52 -16 -52 -16 -52 -16 -52 -16 -52 -8 -26 -9 -26 -16 -52 -16 -51 -17 -52 -16 -52 -16 -52 -4 -13 -13 -39 -16 -52 -33 -104 -17 -51 -17 -52 0 0 -73 -225 -43 -132 -31 -93 -74 -225 -13 -38 -61 -186 -57 -170 -18 -54 -75 -224 -26 -77 -49 -147 -70 -209 -5 -16 -76 -224 -39 -116 -37 -108 -77 -224 -8 -23 -69 -201 -53 -154 -24 -70 -78 -224 -22 -61 -57 -163 -67 -193 -11 -31 -79 -224 -35 -100 -44 -124 -80 -224 -3 -7 -77 -216 -80 -224 -81 -224 -16 -45 -65 -178 -64 -177 -17 -47 -82 -224 -31 -83 -51 -140 -80 -214 -3 -9 -83 -223 -45 -122 -38 -101 -84 -223 -11 -30 -73 -193 -61 -160 -24 -63 -85 -223 -26 -68 -7 -19 -113 -295 -15 -38 -9 -24 -86 -222 -41 -106 -45 -116 -87 -222 -5 -14 -82 -208 -87 -222 -88 -222 -21 -52 -67 -170 -73 -182 -16 -40 -89 -221 -36 -90 -53 -131 -89 -220 -1 -2 -90 -221 -52 -128 -38 -93 -91 -221 -15 -36 -77 -185 -68 -166 -23 -55 -92 -221 -31 -74 -61 -147 -86 -204 -7 -17 -93 -221 -47 -112 -46 -109 -94 -221 -9 -21 -85 -200 -64 -150 -30 -70 -186 -432 -4 -8 -81 -188 -14 -32 -96 -220 -96 -220c-1207,-2748 -2501,-5474 -3883,-8174 -5424,-10589 -9546,-21502 -12426,-32557 -43852,-20419 -92191,-32818 -143137,-35304 -9440,-1603 -19502,-5170 -27775,-10441 4931,4181 10172,8082 15718,11666 12881,8325 24156,18199 33744,29218zm171485 67807c34961,25979 64996,58216 88449,95051 4382,10313 6153,19919 4851,31729l38 -159 13 -53 87 -370 12 -53 13 -53 12 -53 13 -53 49 -211 13 -53 12 -53 12 -53 12 -53 24 -106 13 -53 12 -53 12 -53 12 -53 6 -26 6 -27 12 -53 12 -53 12 -53 12 -53 12 -53 3 -13 9 -40 12 -53 12 -53 12 -53 12 -53 12 -53 0 0 12 -53 12 -53 12 -53 12 -53 12 -53 9 -39 3 -14 11 -53 12 -53 12 -53 12 -53 12 -53 6 -27 6 -26 12 -53 12 -53 11 -53 12 -53 12 -53 3 -13 8 -40 12 -54 12 -53 11 -53 11 -53 12 -53 0 0 49 -231 29 -136 20 -96 49 -231 8 -40 40 -192 37 -176 11 -56 48 -232 94 -464 47 -233 0 0c169,-852 333,-1707 488,-2564l26 -144 16 -89 80 -452 3 -16 32 -185 9 -49 41 -234c54,-312 107,-625 160,-938l39 -235 77 -470 38 -235 12 -72 26 -163 7 -45 67 -426 18 -113 19 -123 36 -236 2 -16 34 -221 23 -153 12 -83 35 -236 34 -227 3 -18 33 -227 34 -237 34 -237 33 -236 0 -1 33 -237c33,-237 65,-473 96,-711l24 -179 8 -58 31 -237 11 -81 20 -157 28 -220 2 -17 30 -238 29 -238 29 -238c29,-238 58,-476 85,-714l8 -64 20 -174 5 -40 22 -198 27 -238 12 -106 15 -133c329,-2983 572,-5991 724,-9021 595,-11851 2474,-23333 5493,-34320 -28532,-40574 -64705,-75386 -106425,-102347 -7320,-6094 -14190,-14165 -18691,-22809 2179,6085 4768,12082 7777,17957 6996,13658 11826,27854 14619,42198zm73840 498306c-25979,34961 -58215,64996 -95050,88449 -10314,4383 -19919,6153 -31729,4851l38 9 14 3 53 13 53 13 53 13 53 13 53 13 25 6 28 6 53 12 53 13 53 13 53 13 53 12 12 3 41 10 53 13 53 12 53 12 53 13 52 12 1 0 53 13 53 12 53 12 106 25 39 9 14 3 53 13 53 12 106 24 53 12 26 6 292 66 13 3 40 9 159 35 53 12 53 12 0 0 106 24 53 12 452 99 26 6 53 12 106 23 53 12 53 12 14 3 39 9 53 11 54 12 106 22 53 12 0 0c231,49 463,99 694,147l40 8 192 40 176 36 288 59 80 16 30 6 339 68 16 3 353 70 112 22 233 46 24 5 34 6 325 64 10 2 72 14 233 45 64 12 169 32 201 38 32 6 233 44 105 19 129 24 233 43 8 1 225 42 145 26 89 16 233 42 48 9 44 8 327 58 48 9 234 41 89 15 146 25 226 38 8 2 235 39 129 22 106 17 235 39 32 6 203 33 170 28 65 11 235 38 72 12 330 52 43 7 25 4 235 37 113 18 358 55 16 2 374 57 82 13 236 35 57 9 10 1 334 49 30 4 42 6 237 34 97 14 140 20 235 33 1 0 237 33 138 19 99 14 237 32 40 5 197 26 179 24 58 7 237 31 81 10 377 48 18 2 238 30 122 15 116 14 237 29 23 3 215 26 163 19 75 9 238 28 64 7 348 40 31 4 34 4 344 38 134 15c2984,329 5991,572 9021,724 11850,595 23332,2474 34319,5492 40575,-28533 75388,-64706 102349,-106427 6095,-7321 14168,-14191 22813,-18691 -6086,2180 -12087,4769 -17964,7780 -13658,6996 -27854,11826 -42198,14619zm-144346 114636c-39122,16992 -81890,27169 -126808,29020 -11047,-1374 -20205,-4646 -29733,-11643l29 27 10 10 40 37 39 38 39 37 40 37 39 37 19 18 21 19 39 37 39 37 40 37 40 37 39 37 9 9 31 29 39 37 40 37 40 37 79 73 0 1 199 185 29 27 10 10 160 148 40 37 19 18 20 19 40 37c439,406 881,809 1326,1211l525 472 34 30c280,250 561,499 843,748l4 4c469,413 940,823 1415,1230l10 8c179,154 358,307 538,460l25 21 288 244 48 41c272,230 544,458 818,686l88 74 182 151 20 16c176,145 352,291 528,435l54 45 292 240 19 16 273 222 95 77 184 149 16 12 169 137 125 101 60 48 185 148 50 40 135 108 161 128 25 20 186 147 86 67 267 211 20 16 10 8 176 138 122 96 65 51 188 147 45 35 300 233 30 24 188 145 81 63 13 10 282 217 5 4 0 0 298 228 3 3 71 54 230 176 149 112 154 117 36 27 190 143 77 58 113 85 191 143 0 0 191 142 114 85c201,150 403,299 605,448l6 5 42 31c2440,1794 4946,3524 7517,5186 9971,6444 18979,13817 26988,21930 50868,-4455 98895,-18810 142151,-41121 8871,-3223 19171,-5087 28796,-4664 -6363,-1156 -12857,-1915 -19455,-2246 -15290,-768 -29967,-3671 -43757,-8405zm-182474 27012c-44339,-5056 -86204,-18256 -124071,-38058 -8988,-6754 -15344,-14197 -20134,-25103l11 37 4 14 15 52 16 52 15 52 32 104 7 25 8 27 16 52 16 52 31 104 16 52 3 12 12 40 16 52 63 207 0 1 16 52 16 52 16 52 16 52 16 52 96 312 8 26 8 26c182,588 369,1177 559,1764 1455,4502 3131,8963 5031,13367l25 59c1307,3027 2721,6026 4241,8995 5424,10589 9546,21502 12426,32557 43849,20418 92185,32817 143129,35304 9447,1604 19520,5176 27796,10453 -4934,-4185 -10181,-8091 -15731,-11678 -12881,-8325 -24157,-18199 -33744,-29218zm-171486 -67807c-34961,-25979 -64996,-58216 -88449,-95052 -4382,-10313 -6153,-19918 -4851,-31727l-9 37 -3 15 -13 53 -38 158 -13 53 -6 26 -69 292 -2 12 -71 304 0 1 -70 304 -3 14c-162,706 -319,1414 -470,2125 -182,848 -356,1699 -524,2552l-5 24 -131 675 -12 64 -70 370 -6 32c-44,233 -87,467 -130,700l-1 8c-42,231 -84,462 -125,694l-8 48c-66,371 -131,743 -194,1115l-1 8c-105,617 -207,1235 -304,1855l-4 25c-173,1099 -334,2201 -483,3307l-5 40c-555,4135 -943,8320 -1155,12548 -595,11851 -2473,23332 -5492,34319 28528,40567 64692,75374 106402,102333 7333,6101 14218,14188 18721,22849 -1839,-5139 -3971,-10215 -6401,-15209l0 0c-451,-927 -913,-1852 -1385,-2773 -6996,-13658 -11826,-27854 -14619,-42198zm-114636 -144347c-16992,-39123 -27169,-81890 -29020,-126809 1374,-11046 4646,-20204 11642,-29732l0 0 -27 28 -10 11 -38 39 -37 39 -37 39 -37 40 -37 39 -18 19 -19 21 -37 39 -37 40 -37 39 -37 40 -37 39 -9 9 -29 31 -37 40 -37 39 -37 40 -74 79 -1 1 -185 198 -27 29 -10 10 -148 159 -37 40 -18 19 -19 21 -37 40c-406,439 -809,881 -1211,1326 -838,928 -1666,1868 -2484,2820l-10 11c-564,657 -1123,1320 -1677,1988l-14 18c-147,176 -292,353 -438,531l-42 52 -221 270 -18 22 -19 23c-150,183 -300,368 -448,552l-10 12 -140 173 -98 122 -51 64 -148 185 -37 47 -111 139 -125 157 -23 29c-148,186 -295,372 -442,559l-5 6c-145,185 -291,369 -435,555l-32 42 -114 146 -119 153 -27 35 -146 188 -59 77 -231 301 0 0 -144 189 -86 113 -58 77c-193,252 -385,505 -576,760l-54 72 -228 304 -4 6 -143 191 -80 108 -10 13c-148,199 -296,399 -443,599l-35 48c-1792,2438 -3521,4942 -5181,7511 -6444,9971 -13817,18980 -21930,26989 4455,50860 18806,98880 41111,142131 3228,8879 5097,19192 4672,28828 976,-5370 1669,-10834 2061,-16374l0 0c73,-1028 135,-2060 187,-3094 768,-15290 3671,-29967 8405,-43757zm-27016 -182469c5054,-44335 18252,-86195 38051,-124059 6757,-8997 14203,-15359 25116,-20151l-37 11 -15 4 -52 16 -52 15 -52 16 -52 15 -52 16 -25 7 -28 9 -52 16 -52 16 -52 16 -52 16 -52 16 -12 3 -40 12 -52 16 -52 16 -52 16 -52 16 -51 16 -1 0 -52 16 -52 16 -52 16 -52 16 -52 16 -38 12 -14 4 -52 16 -52 16 -52 16 -52 16 -52 16 -25 8 -27 8 -52 16 -52 16 -52 16 -52 16 -52 16 -12 4 -40 13 -52 16 -52 16 -52 16 -52 16 -51 16 -1 0 -52 16 -52 16 -52 16 -52 16 -52 16 -38 12 -13 4 -52 16 -52 16 -104 33 -52 16 -26 9 -26 8 -51 16 -52 17 -52 16 -52 16 -52 17 -13 4 -39 13 -52 17 -52 16 -52 17 -52 17 -52 16c-225,73 -450,146 -675,220l-38 13 -636 211 -77 26 -147 50 -209 70 -16 5 -340 115 -109 37 -225 77 -22 8 -356 122 -70 25 -618 215 -22 8 -32 11 -224 79 -99 35 -125 45 -224 80 -6 2 -217 77 -138 50 -86 31 -224 81 -45 16 -179 65 -175 64 -48 18c-220,80 -440,161 -660,243l-10 3c-223,83 -447,166 -669,250l-28 11c-703,264 -1404,534 -2104,810l-13 5 -80 31 -608 242 -16 6 -41 17c-221,88 -441,177 -662,266l-3 1c-233,94 -466,189 -699,285l-187 77 -164 67 -58 24c-214,89 -429,179 -643,269l-19 8 -331 139 -111 47 -221 93 -19 8 -202 86 -147 63 -73 32 -221 95 -56 24 -164 71 -185 80 -35 15 -220 96 -93 41 -126 55c-2747,1206 -5472,2500 -8171,3882 -10585,5423 -21495,9544 -32546,12424 -20412,43833 -32814,92149 -35307,143074 -1599,9466 -5174,19563 -10463,27857l130 -153 36 -43 166 -197 41 -48 125 -150 166 -198 166 -198 27 -33 138 -166 103 -124 61 -74 165 -199 14 -17 150 -182 90 -109 74 -90 163 -200 2 -2 162 -199 76 -94 87 -106 25 -31 283 -350 17 -21 64 -79 99 -123 138 -172 24 -30 162 -202 322 -406 160 -203 38 -48 123 -156 112 -142 48 -62 160 -205 25 -32 134 -173 8 -11 151 -195 159 -205 13 -16 146 -190 85 -111 73 -95 158 -206 0 0 157 -207 154 -203 3 -4 144 -191 13 -16 157 -208 156 -208 131 -175 25 -33 156 -209 310 -418 154 -210 126 -171 29 -39 106 -144 48 -66 153 -211 307 -422 153 -211 10 -14 142 -198 152 -212 150 -211 1 -2 151 -213 69 -96 83 -117 138 -195 13 -19 150 -214 56 -80 94 -134 150 -215 150 -214 44 -64 105 -152 149 -215 149 -216 32 -46 116 -170 100 -146 48 -70 147 -217 20 -29 127 -188 88 -130 59 -88c552,-819 1097,-1644 1635,-2476 8324,-12879 18196,-24153 29212,-33740zm67811 -171490c25980,-34962 58217,-64996 95053,-88449 10313,-4383 19919,-6153 31728,-4851l-38 -9 -15 -3 -53 -13 -53 -13 -53 -13 -53 -13 -53 -13 -25 -6 -28 -6 -53 -12 -53 -13 -53 -13 -53 -13 -53 -12 -12 -3 -41 -10 -53 -13 -53 -12 -53 -12 -53 -13 -51 -12 -1 0 -53 -13 -53 -12 -53 -12 -53 -12 -53 -13 -39 -9 -14 -3 -53 -13 -53 -12 -106 -24 -53 -12 -26 -6 -27 -6 -53 -12 -212 -48 -13 -3 -41 -9 -106 -24 -53 -12 -53 -12 -52 -12 -1 0 -53 -12 -53 -12 -53 -12 -106 -23 -40 -9 -279 -62 -26 -6 -27 -6 -53 -12 -106 -23 -53 -12 -54 -12 -13 -3 -40 -9 -54 -11 -53 -12 -53 -11 -53 -11 -53 -12 -367 -78 -96 -20 -231 -49 -40 -8 -192 -40 -176 -36 -56 -12 -232 -48 -80 -16 -152 -31 -216 -43 -16 -3 -233 -46 -120 -24 -112 -22 -233 -46 -23 -5 -209 -41 -160 -31 -72 -14 -233 -45 -64 -12 -169 -32 -201 -38 -32 -6 -233 -44 -104 -19 -129 -24 -403 -74 -64 -12 -144 -26 -89 -16 -234 -42 -48 -9 -186 -33 -185 -32 -49 -9 -234 -41 -88 -15 -146 -25 -226 -38 -9 -2 -235 -39 -129 -22 -106 -17 -235 -39 -32 -6 -203 -33 -169 -28 -66 -11 -235 -38 -72 -12 -311 -49 -62 -10 -25 -4 -236 -37 -113 -18 -8 -1 -351 -54 -15 -2 -374 -57 -82 -13 -237 -35 -56 -9 -180 -26 -194 -28 -42 -6 -237 -34 -97 -14 -140 -20 -235 -33 -1 0 -237 -33 -138 -19 -99 -14 -237 -32 -39 -5 -198 -26 -179 -24 -58 -7 -237 -31 -80 -10 -1 0 -375 -48 -18 -2 -237 -30 -122 -15 -116 -14 -238 -29 -23 -3 -215 -26 -163 -19 -75 -9 -238 -28 -64 -7 -343 -39 -35 -4 -34 -4 -344 -38 -133 -15c-2984,-329 -5991,-572 -9021,-724 -11852,-595 -23335,-2474 -34323,-5493 -40557,28523 -75356,64680 -102311,106381 -6102,7341 -14195,14234 -22862,18743 6091,-2181 12096,-4772 17978,-7785 13657,-6996 27853,-11826 42197,-14618zm919011 354602c-10973,0 -21168,-1795 -30583,-5385 -9415,-3590 -17578,-8705 -24487,-15343 -6909,-6638 -12294,-14428 -16155,-23370 -3861,-8941 -5791,-18763 -5791,-29465 0,-10703 1931,-20524 5791,-29466 3861,-8941 9280,-16731 16257,-23369 6977,-6638 15139,-11752 24487,-15343 9348,-3590 19576,-5385 30685,-5385 12328,0 23471,2134 33428,6401 9957,4267 18323,10533 25096,18797l-21134 19508c-4877,-5555 -10296,-9720 -16257,-12497 -5961,-2777 -12464,-4166 -19508,-4166 -6638,0 -12734,1084 -18289,3251 -5555,2168 -10364,5283 -14428,9348 -4064,4064 -7214,8874 -9449,14428 -2235,5555 -3353,11718 -3353,18492 0,6774 1118,12938 3353,18492 2235,5555 5385,10364 9449,14428 4064,4064 8874,7180 14428,9347 5555,2168 11651,3252 18289,3252 7045,0 13547,-1388 19508,-4166 5961,-2777 11380,-7011 16257,-12701l21134 19508c-6773,8264 -15139,14563 -25096,18899 -9958,4335 -21168,6503 -33632,6503zm141842 0c-11244,0 -21642,-1829 -31193,-5487 -9551,-3658 -17815,-8806 -24792,-15444 -6977,-6639 -12396,-14428 -16257,-23370 -3861,-8941 -5791,-18695 -5791,-29262 0,-10567 1931,-20321 5791,-29263 3861,-8941 9314,-16731 16359,-23369 7044,-6638 15308,-11786 24792,-15444 9483,-3658 19779,-5487 30888,-5487 11244,0 21574,1829 30990,5487 9416,3658 17612,8806 24589,15444 6977,6638 12430,14394 16358,23267 3929,8874 5893,18662 5893,29364 0,10567 -1964,20355 -5893,29364 -3929,9009 -9382,16799 -16358,23370 -6977,6570 -15173,11685 -24589,15342 -9415,3658 -19677,5487 -30786,5487zm-203 -28043c6367,0 12226,-1084 17578,-3252 5351,-2167 10059,-5283 14123,-9347 4064,-4064 7214,-8874 9450,-14428 2235,-5555 3353,-11718 3353,-18492 0,-6774 -1118,-12938 -3353,-18492 -2235,-5555 -5351,-10364 -9348,-14428 -3997,-4064 -8704,-7180 -14123,-9348 -5419,-2168 -11312,-3251 -17679,-3251 -6367,0 -12227,1084 -17578,3251 -5351,2168 -10059,5283 -14123,9348 -4064,4064 -7214,8874 -9449,14428 -2236,5555 -3354,11718 -3354,18492 0,6638 1118,12769 3354,18391 2235,5622 5351,10465 9347,14530 3996,4064 8704,7180 14123,9347 5419,2168 11312,3252 17679,3252zm102622 25605l0 -142248 27230 0 83927 102418 -13209 0 0 -102418 32514 0 0 142248 -27027 0 -84129 -102418 13209 0 0 102418 -32514 0zm232271 2439c-10973,0 -21168,-1795 -30583,-5385 -9415,-3590 -17578,-8705 -24487,-15343 -6909,-6638 -12294,-14428 -16155,-23370 -3861,-8941 -5791,-18763 -5791,-29465 0,-10703 1931,-20524 5791,-29466 3861,-8941 9280,-16731 16257,-23369 6977,-6638 15139,-11752 24487,-15343 9347,-3590 19576,-5385 30685,-5385 12328,0 23471,2134 33428,6401 9958,4267 18323,10533 25097,18797l-21134 19508c-4877,-5555 -10296,-9720 -16257,-12497 -5961,-2777 -12464,-4166 -19508,-4166 -6638,0 -12735,1084 -18289,3251 -5555,2168 -10364,5283 -14428,9348 -4064,4064 -7214,8874 -9449,14428 -2236,5555 -3353,11718 -3353,18492 0,6774 1117,12938 3353,18492 2235,5555 5385,10364 9449,14428 4064,4064 8874,7180 14428,9347 5554,2168 11651,3252 18289,3252 7045,0 13547,-1388 19508,-4166 5961,-2777 11380,-7011 16257,-12701l21134 19508c-6773,8264 -15139,14563 -25097,18899 -9957,4335 -21168,6503 -33632,6503zm79049 -2439l0 -142248 107499 0 0 26417 -74782 0 0 89413 77423 0 0 26417 -110140 0zm30278 -59338l0 -25605 68482 0 0 25605 -68482 0zm106076 59338l0 -142248 60760 0c19779,0 35156,4572 46129,13717 10974,9144 16460,21777 16460,37899 0,10567 -2506,19678 -7518,27332 -5013,7654 -12125,13513 -21337,17578 -9212,4064 -20186,6096 -32920,6096l-43284 0 14631 -14428 0 54054 -32920 0zm90429 0l-35562 -51616 35155 0 35969 51616 -35562 0zm-57509 -50396l-14631 -15444 41455 0c10161,0 17747,-2201 22760,-6604 5012,-4403 7518,-10465 7518,-18187 0,-7857 -2506,-13954 -7518,-18289 -5013,-4336 -12599,-6503 -22760,-6503l-41455 0 14631 -15647 0 80675zm143874 50396l0 -115424 -45519 0 0 -26824 123959 0 0 26824 -45519 0 0 115424 -32920 0zm96119 0l0 -142248 32920 0 0 142248 -32920 0zm66653 0l0 -142248 27230 0 83926 102418 -13209 0 0 -102418 32514 0 0 142248 -27027 0 -84129 -102418 13209 0 0 102418 -32514 0zm145499 0l63402 -142248 32514 0 63605 142248 -34546 0 -52022 -125585 13005 0 -52225 125585 -33733 0zm31701 -30482l8738 -24995 73156 0 8941 24995 -90836 0zm189393 32920c-11380,0 -22286,-1524 -32717,-4573 -10431,-3048 -18831,-7011 -25199,-11888l11177 -24792c6096,4335 13310,7892 21642,10669 8332,2777 16765,4166 25300,4166 6502,0 11752,-643 15749,-1931 3997,-1287 6943,-3082 8840,-5385 1896,-2303 2845,-4945 2845,-7925 0,-3793 -1490,-6808 -4471,-9043 -2980,-2235 -6909,-4064 -11786,-5487 -4877,-1423 -10262,-2777 -16155,-4064 -5893,-1287 -11786,-2879 -17679,-4775 -5893,-1897 -11278,-4336 -16155,-7316 -4877,-2980 -8840,-6909 -11888,-11786 -3048,-4877 -4572,-11109 -4572,-18696 0,-8128 2201,-15545 6604,-22251 4403,-6706 11041,-12057 19915,-16054 8874,-3997 20016,-5995 33428,-5995 8941,0 17747,1050 26417,3150 8670,2100 16325,5250 22963,9450l-10160 24995c-6639,-3793 -13277,-6604 -19915,-8433 -6639,-1829 -13141,-2744 -19508,-2744 -6367,0 -11583,745 -15647,2235 -4064,1490 -6977,3421 -8738,5791 -1761,2371 -2642,5114 -2642,8230 0,3658 1490,6605 4471,8840 2980,2235 6909,4031 11787,5385 4877,1354 10262,2709 16155,4064 5893,1355 11786,2913 17680,4674 5893,1761 11278,4132 16155,7112 4877,2980 8840,6909 11888,11786 3048,4877 4572,11041 4572,18492 0,7993 -2235,15309 -6706,21947 -4471,6638 -11143,11989 -20016,16054 -8874,4064 -20084,6096 -33632,6096zm-1257185 -232782l-54392 -7718 0 -96657 54392 0 0 104375zm55128 28299l0 -257263 194417 0 0 47777 -135246 0 0 161708 140024 0 0 47778 -199195 0zm54760 -107315l0 -46308 123853 0 0 46308 -123853 0zm316800 111725c-20336,0 -39141,-3308 -56414,-9923 -17273,-6615 -32219,-15925 -44837,-27931 -12618,-12006 -22418,-26094 -29401,-42265 -6983,-16171 -10474,-33811 -10474,-52922 0,-19111 3492,-36752 10474,-52923 6983,-16171 16845,-30259 29585,-42264 12741,-12006 27687,-21316 44837,-27932 17151,-6615 35772,-9923 55863,-9923 20336,0 39018,3308 56046,9923 17029,6616 31851,15926 44470,27932 12618,12005 22480,26032 29585,42080 7106,16048 10658,33750 10658,53107 0,19111 -3553,36813 -10658,53106 -7106,16293 -16967,30382 -29585,42265 -12619,11883 -27441,21132 -44470,27748 -17029,6615 -35588,9923 -55679,9923zm-368 -50718c11515,0 22112,-1960 31790,-5880 9678,-3920 18192,-9555 25542,-16906 7350,-7351 13047,-16048 17090,-26094 4042,-10045 6064,-21193 6064,-33444 0,-12251 -2021,-23399 -6064,-33444 -4043,-10045 -9678,-18743 -16906,-26094 -7228,-7351 -15742,-12986 -25542,-16906 -9801,-3921 -20459,-5881 -31974,-5881 -11515,0 -22113,1960 -31790,5881 -9678,3920 -18192,9555 -25542,16906 -7350,7350 -13047,16048 -17089,26094 -4043,10045 -6064,21194 -6064,33444 0,12005 2021,23092 6064,33260 4042,10168 9678,18927 16906,26278 7228,7350 15742,12986 25542,16906 9801,3920 20459,5880 31974,5880zm185596 46308l0 -257263 49247 0 151785 185229 -23889 0 0 -185229 58803 0 0 257263 -48880 0 -152152 -185229 23888 0 0 185229 -58803 0zm296955 0l0 -257263 194417 0 0 47777 -135246 0 0 161708 140024 0 0 47778 -199194 0zm54760 -107315l0 -46308 123853 0 0 46308 -123853 0zm191845 107315l0 -257263 59537 0 0 208750 128999 0 0 48513 -188536 0z"/>
   <path class="fil2" d="M1065525 774230c-5189,0 -9795,-639 -13836,-1918 -4042,-1278 -7538,-3195 -10471,-5752 -2932,-2557 -5132,-5226 -6598,-7990 -1467,-2763 -2200,-4136 -2200,-4136 0,0 0,0 0,0l13028 -6936c0,0 0,0 0,0 0,0 564,1015 1673,3064 1109,2049 2538,3854 4286,5414 1748,1560 3797,2744 6147,3553 2350,808 5113,1222 8309,1222 4662,0 8290,-997 10866,-2971 2575,-1974 3853,-4531 3853,-7689 0,-3422 -1297,-6072 -3891,-7933 -2594,-1861 -7764,-3797 -15510,-5828 -9249,-2406 -15735,-5452 -19476,-9136 -3741,-3685 -5621,-8478 -5621,-14381 0,-6993 2651,-12633 7933,-16900 5283,-4267 12200,-6392 20773,-6392 4436,0 8366,507 11768,1541 3403,1034 6429,2613 9080,4719 2651,2106 4719,4362 6223,6768 1504,2406 2256,3609 2256,3609 0,0 0,0 0,0l-12633 6712c0,0 0,0 0,0 0,0 -489,-733 -1485,-2200 -997,-1467 -2256,-2839 -3779,-4098 -1523,-1260 -3215,-2218 -5076,-2876 -1861,-658 -4080,-978 -6636,-978 -4061,0 -7238,808 -9531,2444 -2293,1636 -3440,3816 -3440,6524 0,2820 1241,5038 3722,6655 2482,1617 7520,3459 15114,5527 9400,2482 16073,5678 20002,9587 3929,3911 5884,9043 5884,15397 0,7256 -2725,13291 -8177,18122 -5452,4832 -12971,7256 -22558,7256zm-589026 -493451l-182779 55413 0 107046 0 68 54682 22579 0 -9 0 -114981 128097 -38835 0 -31281zm-182779 175367l0 10092c0,20596 4,42752 4674,65981l19 101 61807 34340 -10 -24c-11798,-28079 -11809,-48807 -11809,-79703l0 -7745 -54682 -23043zm8421 91333c13747,47067 49941,97963 145256,148872 -39966,-50814 -63789,-84494 -77997,-110729l-67258 -38144zm811094 224777c0,0 0,0 0,0 0,0 0,0 0,0l0 -80760c0,0 0,0 0,0 0,0 0,0 0,0l53183 0c0,0 0,0 0,0 0,0 0,0 0,0l0 14212c0,0 0,0 0,0 0,0 0,0 0,0l-37335 0 0 52336 38801 0c0,0 0,0 0,0 0,0 0,0 0,0l0 14212c0,0 0,0 0,0 0,0 0,0 0,0l-54649 0zm10095 -35192l0 -13253 35756 0c0,0 0,0 0,0 0,0 0,0 0,0l0 13253c0,0 0,0 0,0 0,0 0,0 0,0l-35756 0zm99992 37222c-11957,-38 -22052,-3948 -30304,-11712 -8253,-7764 -12388,-18010 -12388,-30755 0,-12408 4117,-22578 12332,-30492 8215,-7915 18536,-11862 30981,-11862 4474,0 8441,413 11900,1241 3459,828 6693,2068 9700,3722 3008,1654 5489,3384 7444,5207 1955,1823 2933,2745 2933,2745 0,0 0,0 0,0l-10152 10941c0,0 0,0 0,0 0,0 -658,-639 -1992,-1899 -1335,-1260 -2970,-2444 -4906,-3572 -1936,-1128 -4098,-2011 -6486,-2651 -2388,-639 -5132,-959 -8215,-959 -8084,0 -14626,2482 -19645,7463 -5020,4982 -7538,11749 -7538,20284 0,8497 2556,15246 7651,20265 5095,5019 11355,7538 18799,7538 7219,0 13140,-1861 17765,-5583 4624,-3722 7125,-8497 7501,-14325l-23574 0c0,0 0,0 0,0 0,0 0,0 0,0l0 -13253c0,0 0,0 0,0 0,0 0,0 0,0l39478 0c0,0 19,0 38,0 19,0 0,0 -38,0l56 9249c0,11392 -3853,20641 -11580,27748 -7726,7106 -17652,10659 -29759,10659zm89276 -113c-10678,0 -18855,-2876 -24533,-8610 -5677,-5734 -8516,-13742 -8516,-24044l0 -50024c0,0 0,0 0,0 0,0 0,0 0,0l15904 0c0,0 0,0 0,0 0,0 0,0 0,0l0 49742c0,5903 1467,10415 4399,13535 2932,3121 7256,4681 12971,4681 5753,0 10095,-1523 13009,-4568 2914,-3045 4362,-7595 4362,-13648l0 -49742c0,0 0,0 0,0 0,0 0,0 0,0l15509 0c0,0 0,0 0,0 0,0 0,0 0,0l0 50024c0,10339 -3027,18367 -9098,24082 -6072,5715 -14081,8572 -24006,8572zm53916 -1918c0,0 0,0 0,0 0,0 0,0 0,0l0 -80760c0,0 0,0 0,0 0,0 0,0 0,0l31244 0c8836,0 15716,2256 20623,6767 4907,4512 7350,10847 7350,19006 0,8008 -2782,14306 -8346,18912 -5564,4606 -12238,6918 -20021,6918l-23799 0 0 -12126 21544 0c4324,0 7820,-1128 10471,-3365 2651,-2237 3967,-5452 3967,-9663 0,-4286 -1278,-7444 -3854,-9475 -2575,-2030 -5997,-3045 -10245,-3045l-13028 0 0 66830c0,0 0,0 0,0 0,0 0,0 0,0l-15904 0zm47824 0c0,0 0,0 0,0 0,0 0,0 0,0l-25435 -35079 17370 -620 26901 35699c0,0 0,0 0,0 0,0 0,0 0,0l-18837 0zm23913 0c0,0 0,0 0,0 0,0 0,0 0,0l32598 -80760c0,0 0,0 0,0 0,0 0,0 0,0l14494 0c0,0 0,0 0,0 0,0 0,0 0,0l32541 80760c0,0 0,0 0,0 0,0 0,0 0,0l-16806 0c0,0 0,0 0,0 0,0 0,0 0,0l-19288 -50644 -3722 -10659 -395 0 -3496 10603 -19232 50701c0,0 0,0 0,0 0,0 0,0 0,0l-16693 0zm14720 -16355l4512 -13028 40606 0 4681 13028 -49799 0zm79069 16355c0,0 0,0 0,0 0,0 0,0 0,0l0 -80760c0,0 0,0 0,0 0,0 0,0 0,0l16130 0c0,0 0,0 0,0 0,0 0,0 0,0l36658 54874 395 0 -677 -12013 0 -42861c0,0 0,0 0,0 0,0 0,0 0,0l15227 0c0,0 0,0 0,0 0,0 0,0 0,0l0 80760c0,0 0,0 0,0 0,0 0,0 0,0l-14212 0c0,0 0,0 0,0 0,0 0,0 0,0l-38406 -55495 -395 0 508 11279 0 44215c0,0 0,0 0,0 0,0 0,0 0,0l-15227 0zm128190 1974c-12896,0 -23255,-3929 -31093,-11768 -7839,-7839 -11768,-18047 -11768,-30642 0,-12295 4154,-22427 12463,-30379 8309,-7952 18555,-11918 30737,-11918 3948,0 7651,432 11110,1297 3459,864 6730,2199 9813,4004 3083,1805 5527,3591 7332,5358 1805,1767 2707,2651 2707,2651 0,0 0,0 0,0l-10265 11054c0,0 0,0 0,0 0,0 -620,-639 -1880,-1918 -1260,-1278 -2876,-2519 -4832,-3722 -1955,-1203 -4042,-2143 -6279,-2801 -2237,-658 -4869,-977 -7876,-977 -7294,0 -13554,2519 -18781,7557 -5226,5038 -7839,11674 -7839,19908 0,8121 2576,14701 7727,19758 5151,5057 11354,7595 18611,7595 2820,0 5490,-357 8009,-1071 2519,-715 4887,-1768 7106,-3140 2218,-1372 4042,-2763 5470,-4173 1429,-1410 2143,-2106 2143,-2106 0,0 0,0 0,0l10546 10265c0,0 0,0 0,0 0,0 -921,1034 -2782,3121 -1861,2087 -4474,4117 -7839,6091 -3365,1974 -6937,3459 -10716,4455 -3779,997 -7726,1504 -11825,1504zm-1015 26056c-2744,0 -5132,-658 -7162,-1955 -2030,-1297 -3666,-3346 -4906,-6166 0,0 0,0 0,0 0,0 0,0 0,0l6824 -3102c0,0 0,0 0,0 0,0 0,0 0,0 602,1466 1354,2481 2237,3045 884,564 1805,846 2782,846 1391,0 2519,-470 3365,-1391 846,-921 1260,-2011 1260,-3290 0,-1278 -451,-2387 -1354,-3308 -902,-921 -2030,-1372 -3383,-1372 -677,0 -1316,131 -1936,395 -620,263 -1316,808 -2068,1635 0,0 0,0 0,0 0,0 0,0 0,0l-6485 -2707c0,0 0,0 0,0 0,0 0,0 0,0l4681 -10771 7501 0 -2707 5132c376,-113 809,-207 1297,-282 489,-75 996,-113 1523,-113 3083,0 5715,1071 7895,3214 2181,2143 3271,4906 3271,8290 0,3271 -1203,6072 -3610,8403 -2406,2331 -5414,3497 -9024,3497zm40831 -28029c0,0 0,0 0,0 0,0 0,0 0,0l32598 -80760c0,0 0,0 0,0 0,0 0,0 0,0l14494 0c0,0 0,0 0,0 0,0 0,0 0,0l32541 80760c0,0 0,0 0,0 0,0 0,0 0,0l-16806 0c0,0 0,0 0,0 0,0 0,0 0,0l-19288 -50644 -3722 -10659 -395 0 -3497 10603 -19231 50701c0,0 0,0 0,0 0,0 0,0 0,0l-16694 0zm14720 -16355l4512 -13028 40606 0 4681 13028 -49798 0zm109466 16355c0,0 0,0 0,0 0,0 0,0 0,0l0 -80760c0,0 0,0 0,0 0,0 0,0 0,0l32992 0c8008,0 14457,2387 19325,7181 4869,4794 7294,11392 7294,19776 0,8685 -2519,15509 -7557,20472 -5038,4963 -11918,7445 -20641,7445l-22164 0 0 -13535 20134 0c4474,0 7934,-1166 10377,-3478 2443,-2312 3666,-5715 3666,-10227 0,-4437 -1260,-7840 -3797,-10189 -2538,-2350 -5922,-3515 -10133,-3515l-13591 0 0 66830c0,0 0,0 0,0 0,0 0,0 0,0l-15904 0zm76192 0c0,0 0,0 0,0 0,0 0,0 0,0l0 -80760c0,0 0,0 0,0 0,0 0,0 0,0l53183 0c0,0 0,0 0,0 0,0 0,0 0,0l0 14212c0,0 0,0 0,0 0,0 0,0 0,0l-37335 0 0 52336 38801 0c0,0 0,0 0,0 0,0 0,0 0,0l0 14212c0,0 0,0 0,0 0,0 0,0 0,0l-54649 0zm10095 -35192l0 -13253 35756 0c0,0 0,0 0,0 0,0 0,0 0,0l0 13253c0,0 0,0 0,0 0,0 0,0 0,0l-35756 0zm62319 35192c0,0 0,0 0,0 0,0 0,0 0,0l0 -80760c0,0 0,0 0,0 0,0 0,0 0,0l31244 0c8835,0 15716,2256 20623,6767 4906,4512 7350,10847 7350,19006 0,8008 -2782,14306 -8347,18912 -5564,4606 -12238,6918 -20021,6918l-23800 0 0 -12126 21544 0c4324,0 7821,-1128 10471,-3365 2651,-2237 3966,-5452 3966,-9663 0,-4286 -1278,-7444 -3853,-9475 -2575,-2030 -5997,-3045 -10246,-3045l-13028 0 0 66830c0,0 0,0 0,0 0,0 0,0 0,0l-15904 0zm47825 0c0,0 0,0 0,0 0,0 0,0 0,0l-25435 -35079 17371 -620 26901 35699c0,0 0,0 0,0 0,0 0,0 0,0l-18837 0zm32710 0c0,0 0,0 0,0 0,0 0,0 0,0l0 -80760c0,0 0,0 0,0 0,0 0,0 0,0l15960 0c0,0 0,0 0,0 0,0 0,0 0,0l0 80760c0,0 0,0 0,0 0,0 0,0 0,0l-15960 0zm38406 0c0,0 0,0 0,0 0,0 0,0 0,0l0 -80760c0,0 0,0 0,0 0,0 0,0 0,0l19457 0c0,0 0,0 0,0 0,0 0,0 0,0l26112 62601 394 0 26168 -62601c0,0 0,0 0,0 0,0 0,0 0,0l18555 0c0,0 0,0 0,0 0,0 0,0 0,0l0 80760c0,0 0,0 0,0 0,0 0,0 0,0l-15228 0c0,0 0,0 0,0 0,0 0,0 0,0l0 -41508 508 -15114 -395 0 -23292 56622c0,0 0,0 0,0 0,0 0,0 0,0l-13479 0c0,0 0,0 0,0 0,0 0,0 0,0l-23800 -56792 -395 0 620 15284 0 41508c0,0 0,0 0,0 0,0 0,0 0,0l-15227 0zm113132 0c0,0 0,0 0,0 0,0 0,0 0,0l0 -80760c0,0 0,0 0,0 0,0 0,0 0,0l53183 0c0,0 0,0 0,0 0,0 0,0 0,0l0 14212c0,0 0,0 0,0 0,0 0,0 0,0l-37335 0 0 52336 38801 0c0,0 0,0 0,0 0,0 0,0 0,0l0 14212c0,0 0,0 0,0 0,0 0,0 0,0l-54649 0zm10096 -35192l0 -13253 35755 0c0,0 0,0 0,0 0,0 0,0 0,0l0 13253c0,0 0,0 0,0 0,0 0,0 0,0l-35755 0zm79802 35192c0,0 0,0 0,0 0,0 0,0 0,0l0 -73767 15904 0 0 73767c0,0 0,0 0,0 0,0 0,0 0,0l-15904 0zm-24758 -66266c0,0 0,0 0,0 0,0 0,0 0,0l0 -14494c0,0 0,0 0,0 0,0 0,0 0,0l65421 0c0,0 0,0 0,0 0,0 0,0 0,0l0 14494c0,0 0,0 0,0 0,0 0,0 0,0l-65421 0zm80592 66266c0,0 0,0 0,0 0,0 0,0 0,0l0 -80760c0,0 0,0 0,0 0,0 0,0 0,0l31244 0c8836,0 15716,2256 20623,6767 4907,4512 7350,10847 7350,19006 0,8008 -2782,14306 -8346,18912 -5565,4606 -12238,6918 -20021,6918l-23799 0 0 -12126 21544 0c4324,0 7820,-1128 10471,-3365 2651,-2237 3967,-5452 3967,-9663 0,-4286 -1279,-7444 -3854,-9475 -2575,-2030 -5997,-3045 -10246,-3045l-13028 0 0 66830c0,0 0,0 0,0 0,0 0,0 0,0l-15904 0zm47824 0c0,0 0,0 0,0 0,0 0,0 0,0l-25435 -35079 17371 -620 26901 35699c0,0 0,0 0,0 0,0 0,0 0,0l-18837 0zm23913 0c0,0 0,0 0,0 0,0 0,0 0,0l32597 -80760c0,0 0,0 0,0 0,0 0,0 0,0l14494 0c0,0 0,0 0,0 0,0 0,0 0,0l32541 80760c0,0 0,0 0,0 0,0 0,0 0,0l-16806 0c0,0 0,0 0,0 0,0 0,0 0,0l-19288 -50644 -3722 -10659 -395 0 -3496 10603 -19232 50701c0,0 0,0 0,0 0,0 0,0 0,0l-16693 0zm14720 -16355l4512 -13028 40606 0 4681 13028 -49799 0zm79069 16355c0,0 0,0 0,0 0,0 0,0 0,0l0 -80760c0,0 0,0 0,0 0,0 0,0 0,0l15904 0c0,0 0,0 0,0 0,0 0,0 0,0l0 66266 35812 0c0,0 0,0 0,0 0,0 0,0 0,0l0 14494c0,0 0,0 0,0 0,0 0,0 0,0l-51716 0z"/>
  </g>
 </g>
</svg>
