<?xml version="1.0" encoding="UTF-8"?>
<!DOCTYPE svg PUBLIC "-//W3C//DTD SVG 1.1//EN" "http://www.w3.org/Graphics/SVG/1.1/DTD/svg11.dtd">
<!-- Creator: CorelDRAW 2026 -->
<svg xmlns="http://www.w3.org/2000/svg" xml:space="preserve" width="60cm" height="18.114cm" version="1.1" style="shape-rendering:geometricPrecision; text-rendering:geometricPrecision; image-rendering:optimizeQuality; fill-rule:evenodd; clip-rule:evenodd"
viewBox="0 0 19195516 5795129"
 xmlns:xlink="http://www.w3.org/1999/xlink"
 xmlns:xodm="http://www.corel.com/coreldraw/odm/2003">
 <defs>
  <style type="text/css">
   <![CDATA[
    .fil0 {fill:white;fill-rule:nonzero}
   ]]>
  </style>
 </defs>
 <g id="Camada_x0020_1">
  <metadata id="CorelCorpID_0Corel-Layer"/>
  <path class="fil0" d="M6607647 4452653c-42720,0 -80640,-5266 -113922,-15788 -33275,-10526 -62066,-26314 -86213,-47365 -24148,-21051 -42256,-43030 -54330,-65783 -12071,-22753 -18108,-34053 -18108,-34053 0,0 0,0 0,0l107265 -57116c0,0 0,0 0,0 0,0 4642,8360 13776,25229 9131,16873 20894,31730 35291,44578 14393,12848 31266,22600 50612,29254 19349,6654 42102,10062 68416,10062 38385,0 68259,-8203 89467,-24455 21205,-16252 31730,-37303 31730,-63307 0,-28173 -10682,-49995 -32041,-65319 -21361,-15324 -63927,-31266 -127698,-47982 -76155,-19813 -129554,-44889 -160356,-75224 -30802,-30339 -46280,-69811 -46280,-118411 0,-57580 21825,-104014 65319,-139151 43494,-35137 100453,-52628 171035,-52628 36529,0 68880,4181 96896,12691 28016,8516 52938,21518 74760,38852 21825,17337 38852,35912 51233,55721 12384,19813 18575,29721 18575,29721 0,0 0,0 0,0l-104014 55257c0,0 0,0 0,0 0,0 -4025,-6037 -12228,-18111 -8203,-12074 -18575,-23371 -31113,-33743 -12538,-10369 -26467,-18265 -41792,-23681 -15324,-5420 -33586,-8049 -54637,-8049 -33435,0 -59592,6654 -78478,20123 -18882,13466 -28323,31420 -28323,53709 0,23217 10212,41482 30646,54794 20430,13309 61915,28480 124448,45506 77390,20430 132340,46744 164691,78938 32348,32197 48446,74453 48446,126770 0,59746 -22446,109430 -67331,149210 -44889,39780 -106801,59749 -185742,59749zm-3710081 -2745250l1111465 336961 0 650946 0 413 -332518 137302 0 -54 0 -699193 -778948 -236153 -778951 236153 0 699193 0 54 -332518 -137302 0 -413 0 -650946 1111468 -336961zm633858 1245831l0 7784c0,388408 0,512383 -633858,1313879 -633858,-801496 -633858,-925470 -633858,-1313875l0 -7784 633858 -192170 633858 192166zm3741612 365547c-167442,0 -321263,-26730 -461467,-80189 -140207,-53456 -262256,-129611 -366148,-228462 -103893,-98851 -184587,-214849 -242081,-347992 -57494,-133143 -86242,-279400 -86242,-438771 0,-159368 28748,-305628 86242,-438771 57494,-133143 138691,-249142 243594,-347992 104900,-98847 227960,-175002 369171,-228462 141215,-53460 296548,-80189 466006,-80189 187614,0 356566,31269 506858,93805 150291,62539 276879,153318 379764,272343l-314704 290495c-76660,-80695 -160379,-140710 -251161,-180048 -90779,-39338 -189629,-59007 -296548,-59007 -102885,0 -196693,16137 -281419,48417 -84729,32277 -157858,78676 -219386,139196 -61528,60520 -108938,132136 -142223,214846 -33288,82710 -49931,174500 -49931,275366 0,98851 16643,189633 49931,272343 33285,82710 80695,154828 142223,216359 61528,61528 134154,108432 217872,140710 83718,32277 176013,48414 276879,48414 96832,0 191146,-15635 282932,-46901 91790,-31269 181059,-84224 267803,-158865l278393 354042c-114991,86745 -248636,153318 -400946,199717 -152310,46399 -304115,69597 -455414,69597zm-2045877 -378628c-50625,78327 -110665,146897 -177670,205197 -30742,269620 -111011,524191 -231424,754461 -41072,54662 -86335,93316 -152656,122445l227 -70 86 -26 317 -93 317 -96 317 -96 317 -93 630 -189 317 -96 317 -96 317 -96 317 -96 317 -93 74 -22 240 -74 317 -96 317 -96 317 -99 317 -93 310 -96 3 -3 317 -96 317 -96 317 -96 314 -96 317 -96 234 -70 83 -29 317 -96 314 -96 317 -99 317 -96 314 -99 157 -48 160 -51 317 -96 314 -99 317 -96 317 -99 314 -99 77 -22 240 -74 317 -99 314 -99 947 -298 3 0 1574 -496 237 -77 80 -22 317 -102 4728 -1513 317 -102 0 0c1369,-441 2735,-889 4105,-1337l237 -77c1286,-426 2575,-851 3861,-1280l473 -157 896 -301 1270 -429 93 -32c1414,-477 2825,-957 4236,-1440l1225 -419 937 -323 422 -147 1363 -473 378 -131 1952 -681 208 -74 189 -64 1363 -480 608 -218 752 -266 1408 -499 1315 -470 841 -304 518 -186 1360 -489 278 -102 1779 -646 374 -138 285 -102 125 -48 1744 -640 845 -310 1308 -483 51 -16 1356 -505 742 -278 614 -230 1353 -505 182 -70 336 -128 3545 -1344 416 -160 2143 -822 147 -54 1987 -768 13 -6 704 -272 1353 -528 86 -35 1264 -496 877 -342 473 -186 1350 -534 317 -128 1030 -410 1110 -441 240 -96 1347 -541 553 -221 797 -320 1337 -544 10 -3 1347 -547 781 -317 566 -230 1344 -553 224 -90 1120 -464 1014 -416 333 -141 1344 -557 454 -189 202 -86 1926 -806 102 -45 1344 -563 685 -288 38 -19 1958 -832 131 -54 1213 -515 912 -394 426 -182 1340 -576 998 -432 342 -147 1139 -496 198 -86 1337 -582 589 -256 749 -330c16713,-7336 33288,-15206 49704,-23614 64391,-32984 130753,-58050 197976,-75566 124179,-266683 199579,-560666 214686,-870501 9758,-57366 31439,-118507 63467,-168777 -25418,29974 -49134,61842 -70924,95555zm-2329593 -1552425l1383082 419310 0 984058c0,529291 0,1194652 -1383082,1852236 -1383082,-657584 -1383082,-1322945 -1383082,-1852236l0 -984058 1383082 -419310zm633858 846078l0 619497 -633858 -192166 -633858 192166 0 -619497 240209 -72828 0 269550 136432 -41360 0 -269550 257217 -77982 257214 77982 0 269550 136435 41360 0 -269550 240209 72828zm477607 539992l0 61371c0,125244 -22,259971 -28422,401228l-118 617 -375845 208815 61 -144c71743,-170747 71807,-296795 71807,-484668l0 -47096 332518 -140124zm-51210 555387c-83596,286215 -303689,595707 -883288,905289 243028,-308997 387900,-513810 474296,-673340l408992 -231949zm-1060255 1140758c1235756,-587540 1235756,-1182025 1235756,-1654941l0 -879238 -1235756 -374645 -1235759 374645 0 879238c0,472917 0,1067402 1235759,1654941zm1996583 -1214456c-73922,42096 -152784,74066 -234326,95418l-132705 34744 109955 -82125c27261,-20363 53072,-42998 77112,-67837 23534,-24314 45500,-50884 65617,-79649l45 -64c3090,-4425 5500,-7889 6840,-9870 2851,-4213 5119,-7605 6574,-9854 10823,-16748 20738,-33727 29756,-50878 9179,-17452 17471,-35137 24887,-52996l17001 -40934 53712 64670 966 -822c4005,-52049 6063,-104644 6063,-157723 0,-241710 -42368,-473502 -119943,-688466 -42988,73474 -95328,140639 -155311,199940l-97552 96441 54163 -126102c13427,-31263 24458,-63774 32860,-97305 8225,-32821 13965,-66816 17001,-101781l10 -83c464,-5375 816,-9579 985,-11962 365,-5077 633,-9150 768,-11824 998,-19915 1097,-39578 333,-58940 -777,-19701 -2438,-39165 -4946,-58338l-5746 -43951 78852 29152 585 -1644c-124771,-260550 -303609,-490221 -521881,-674703 -553,84876 -12298,168965 -34530,250079l-36260 132292 -16147 -136285c-4002,-33791 -10702,-67459 -20194,-100700 -9287,-32536 -21313,-64846 -36168,-96646l-35 -74c-2284,-4888 -4079,-8705 -5125,-10855 -2223,-4578 -4028,-8238 -5247,-10622 -9092,-17749 -18837,-34824 -29180,-51210 -10526,-16675 -21697,-32700 -33455,-48050l-26951 -35189 82861 -14182 -221 -1219c-232778,-160087 -500625,-272858 -789688,-324356 42096,73922 74066,152784 95415,234326l34747 132705 -82125 -109955c-20363,-27261 -43001,-53072 -67837,-77112 -24314,-23534 -50884,-45500 -79649,-65617l-64 -45c-4425,-3090 -7889,-5500 -9870,-6840 -4213,-2851 -7605,-5119 -9854,-6574 -16748,-10823 -33727,-20738 -50878,-29756 -17452,-9179 -35137,-17471 -52996,-24890l-40934 -16998 64670 -53712 -822 -966c-52052,-4009 -104648,-6063 -157723,-6063 -241710,0 -473505,42368 -688470,119943 73474,42988 140642,95328 199940,155311l96441 97552 -126099 -54163c-31266,-13427 -63774,-24458 -97305,-32860 -32821,-8225 -66816,-13965 -101784,-17004l-80 -6c-5375,-464 -9579,-816 -11965,-989 -5074,-362 -9147,-630 -11821,-765 -19919,-1001 -39578,-1097 -58940,-333 -19701,777 -39165,2438 -58338,4946l-43951 5746 29152 -78852 -1644 -585c-260554,124771 -490225,303609 -674706,521881 84876,553 168965,12295 250079,34530l132295 36260 -136288 16147c-33787,4002 -67456,10702 -100696,20194 -32536,9287 -64846,21313 -96646,36168l-74 32c-4888,2287 -8705,4082 -10855,5125 -4578,2227 -8241,4031 -10622,5250 -17749,9092 -34824,18837 -51210,29180 -16678,10526 -32700,21697 -48053,33455l-35189 26951 -14179 -82861 -1222 221c-160084,232778 -272855,500625 -324356,789688 73922,-42099 152787,-74066 234329,-95418l132702 -34744 -109955 82125c-27261,20363 -53069,42998 -77108,67837 -23534,24314 -45503,50884 -65617,79649l-45 64c-3094,4425 -5500,7889 -6840,9870 -2851,4213 -5122,7605 -6574,9854 -10823,16748 -20741,33727 -29759,50878 -9179,17449 -17471,35137 -24887,52996l-16998 40934 -53712 -64670 -969 822c-4005,52052 -6063,104648 -6063,157723 0,241710 42371,473505 119946,688470 42985,-73474 95328,-140642 155308,-199944l97552 -96441 -54160 126102c-13427,31263 -24461,63774 -32863,97305 -8222,32821 -13962,66816 -17001,101781l-6 83c-464,5375 -819,9579 -989,11962 -362,5077 -630,9150 -765,11824 -1001,19915 -1097,39578 -333,58940 774,19701 2438,39165 4943,58338l5749 43951 -78852 -29152 -589 1648c124771,260550 303609,490221 521884,674703 553,-84876 12295,-168965 34530,-250082l36260 -132292 16147 136285c4002,33791 10702,67459 20190,100700 9291,32536 21317,64846 36168,96646l35 74c2284,4888 4082,8705 5125,10855 2227,4578 4028,8238 5250,10622 9092,17749 18837,34824 29180,51210 10526,16675 21694,32700 33451,48050l26954 35189 -82864 14182 224 1222c232778,160087 500625,272855 789688,324356 -42099,-73925 -74066,-152787 -95418,-234329l-34744 -132705 82125 109955c20360,27261 42998,53072 67837,77112 24311,23534 50884,45500 79645,65617l67 45c4421,3090 7886,5500 9866,6840 4217,2851 7608,5119 9857,6574 16748,10823 33727,20738 50875,29756 17455,9179 35137,17471 52999,24890l40934 16998 -64670 53712 822 969c52052,4005 104644,6063 157723,6063 241710,0 473505,-42371 688466,-119946 -73474,-42985 -140639,-95328 -199940,-155311l-96441 -97552 126102 54163c31263,13427 63774,24458 97302,32860 32824,8225 66820,13965 101784,17004l80 6c5378,464 9582,816 11965,989 5077,362 9147,630 11824,765 19915,1001 39575,1097 58937,333 19704,-777 39165,-2438 58342,-4946l43951 -5746 -29152 78852 1648 589c260550,-124771 490221,-303612 674700,-521884 -84873,-553 -168965,-12295 -250079,-34530l-132295 -36260 136288 -16147c33787,-4002 67459,-10702 100696,-20194 32540,-9287 64849,-21313 96649,-36168l74 -32c4888,-2287 8705,-4082 10855,-5125 4578,-2227 8238,-4031 10622,-5250 17749,-9092 34824,-18837 51210,-29180 16675,-10526 32696,-21697 48050,-33455l35189 -26951 14182 82861 1219 -221c160094,-232771 272883,-500606 324356,-789688zm100377 -271681l224 -243 224 -237 3 -3 224 -243 227 -240 224 -243 224 -240 227 -243 166 -176 58 -67 224 -240 227 -243 224 -243 224 -243 227 -240 109 -118 115 -125 224 -243 224 -243 224 -243 224 -240 224 -243 54 -61 170 -182 227 -243 445 -486 227 -246 221 -240 0 -3 227 -243 221 -243 224 -243 224 -246 224 -243 166 -182 58 -61 221 -243 224 -246 445 -489 224 -243 112 -122 112 -122 221 -246 224 -246 224 -243 445 -493 54 -61 166 -182 224 -246 221 -246 224 -246 221 -243 224 -246 0 -3 957 -1059 569 -633 387 -432 957 -1065 182 -205 771 -864 749 -841 205 -230 950 -1072 358 -406 589 -665 925 -1046 26 -29 1475 -1680 10 -10 406 -464 944 -1081 154 -176 787 -905 713 -819 227 -262 941 -1088 330 -381 608 -704 886 -1030 51 -58 934 -1091 502 -592 429 -499 931 -1094 128 -150 803 -944 928 -1097 928 -1101 925 -1101 851 -1011 74 -90 921 -1104 473 -566 448 -537 182 -218 2572 -3110 912 -1110 1827 -2230 912 -1117 441 -544 467 -576c905,-1120 1811,-2239 2713,-3366l905 -1126c1200,-1500 2399,-3007 3593,-4517l893 -1133 51 -61 845 -1075 889 -1139 889 -1139c1779,-2278 3548,-4569 5308,-6866l547 -717 330 -435 880 -1152c2038,-2681 4063,-5378 6075,-8088l19 -26 864 -1165 163 -221 701 -947 22 -32 838 -1136 0 0c10909,-14835 21425,-30076 31535,-45708 39188,-60632 84019,-115416 133354,-164118 -27094,-309345 -114399,-601421 -250092,-864470 -19570,-53898 -30898,-116466 -28349,-174945 -7022,38663 -11626,78116 -13638,118203 -4671,92977 -22328,182226 -51114,266085 103326,237900 165209,497960 176471,771103 -8353,67181 -28253,122870 -70799,180812 1209,-1277 2415,-2559 3622,-3846zm380948 -411926c88632,-58287 185720,-101148 286938,-127644l132718 -34750 -109971 82128c-27261,20360 -53066,42995 -77108,67831 -23534,24314 -45503,50887 -65620,79652l-102 26 54 38c-3068,4396 -5480,7867 -6837,9870 -2851,4213 -5103,7579 -6574,9857 -10820,16742 -20738,33717 -29753,50862 -9179,17455 -17471,35144 -24890,53008l-17004 40928 -53709 -64660c-3871,3282 -7720,6603 -11546,9956 2902,49169 4517,98687 4517,148586 0,338980 -67603,662156 -189908,956877 105786,-6114 211183,5317 311982,32946l132311 36270 -136304 16137c-33787,4002 -67453,10702 -100693,20187 -32536,9291 -64849,21320 -96653,36171l-102 -26 32 61c-4856,2268 -8683,4069 -10858,5128 -4578,2220 -8209,4012 -10622,5247 -17743,9089 -34817,18831 -51198,29174 -16678,10526 -32706,21697 -48062,33458l-35189 26944 -14182 -82851c-4799,870 -9595,1782 -14390,2732 -170296,339617 -415669,635058 -714425,864505 94890,47630 180639,110326 254261,184798l96454 97564 -126111 -54176c-31263,-13427 -63768,-24461 -97299,-32863 -32824,-8222 -66820,-13962 -101787,-17001l-77 -74 -3 67c-5340,-464 -9553,-816 -11968,-989 -5074,-362 -9115,-630 -11821,-765 -19912,-1001 -39568,-1101 -58924,-336 -19707,777 -39172,2441 -58351,4946l-43948 5739 29145 -78842c-4703,-1686 -9425,-3330 -14163,-4943 -308993,204266 -665976,341770 -1050478,391819 58284,88632 101148,185720 127644,286938l34750 132721 -82128 -109974c-20360,-27261 -42995,-53066 -67831,-77108 -24318,-23534 -50887,-45503 -79652,-65620l-29 -102 -35 58c-4396,-3071 -7867,-5484 -9870,-6837 -4213,-2854 -7579,-5106 -9857,-6578 -16742,-10820 -33717,-20734 -50862,-29753 -17455,-9179 -35144,-17471 -53008,-24890l-40931 -17004 64663 -53706c-3282,-3874 -6603,-7726 -9959,-11549 -49169,2902 -98684,4517 -148583,4517 -338980,0 -662156,-67607 -956880,-189908 6117,105786 -5314,211183 -32946,311982l-36267 132311 -16137 -136304c-4002,-33787 -10702,-67453 -20190,-100693 -9291,-32536 -21317,-64849 -36171,-96653l29 -102 -61 32c-2271,-4856 -4073,-8683 -5128,-10858 -2223,-4578 -4012,-8209 -5247,-10622 -9089,-17743 -18834,-34817 -29174,-51198 -10526,-16678 -21697,-32706 -33458,-48062l-26947 -35189 82854 -14182c-870,-4799 -1782,-9598 -2732,-14390 -339620,-170296 -635058,-415672 -864505,-714425 -47630,94890 -110329,180639 -184802,254264l-97561 96451 54173 -126111c13427,-31263 24461,-63768 32863,-97296 8222,-32828 13965,-66823 17001,-101791l77 -77 -67 -3c461,-5340 816,-9553 985,-11965 365,-5077 630,-9118 768,-11824 1001,-19909 1097,-39568 336,-58924 -781,-19707 -2441,-39172 -4946,-58351l-5743 -43948 78846 29145c1683,-4703 3330,-9425 4940,-14166 -204266,-308990 -341767,-665972 -391816,-1050475 -88632,58284 -185723,101144 -286941,127644l-132718 34750 109974 -82128c27258,-20360 53066,-42995 77108,-67831 23534,-24314 45503,-50887 65617,-79652l102 -26 -54 -38c3071,-4396 5480,-7867 6837,-9870 2854,-4213 5103,-7579 6574,-9857 10823,-16742 20738,-33717 29753,-50862 9179,-17455 17474,-35144 24893,-53008l17001 -40928 53709 64660c3874,-3282 7723,-6603 11549,-9959 -2902,-49169 -4517,-98684 -4517,-148583 0,-338980 67603,-662156 189908,-956877 -105786,6114 -211183,-5317 -311982,-32946l-132311 -36270 136304 -16137c33784,-4002 67453,-10702 100690,-20187 32540,-9291 64849,-21320 96653,-36171l102 26 -29 -61c4856,-2268 8683,-4069 10858,-5128 4575,-2220 8209,-4012 10622,-5247 17743,-9089 34814,-18831 51198,-29174 16678,-10526 32703,-21697 48062,-33458l35189 -26944 14179 82851c4802,-870 9598,-1782 14393,-2732 170293,-339620 415669,-635058 714425,-864505 -94893,-47630 -180639,-110326 -254264,-184798l-96451 -97564 126111 54176c31260,13427 63768,24461 97296,32863 32824,8222 66820,13962 101791,17001l74 74 6 -67c5340,464 9553,816 11965,989 5074,362 9115,630 11821,765 19912,1001 39568,1101 58927,336 19704,-777 39172,-2441 58351,-4946l43948 -5739 -29145 78842c4703,1686 9425,3334 14163,4943 308990,-204266 665976,-341770 1050478,-391819 -58287,-88629 -101148,-185720 -127647,-286938l-34747 -132721 82128 109974c20357,27261 42992,53066 67831,77108 24314,23534 50887,45503 79652,65620l26 102 38 -58c4396,3071 7867,5484 9870,6837 4213,2854 7579,5106 9854,6578 16745,10820 33720,20734 50865,29753 17455,9179 35144,17471 53005,24890l40931 17004 -64663 53706c3286,3874 6603,7723 9959,11549 49169,-2902 98687,-4521 148586,-4521 338983,0 662156,67607 956877,189911 -6117,-105786 5317,-211183 32946,-311982l36267 -132311 16140 136304c3999,33787 10698,67453 20187,100693 9291,32536 21320,64849 36171,96653l-26 102 61 -32c2268,4856 4069,8683 5128,10858 2220,4578 4012,8209 5247,10622 9089,17743 18831,34817 29171,51198 10529,16678 21701,32706 33461,48062l26944 35189 -82851 14182c870,4799 1782,9595 2732,14390 339617,170293 635058,415669 864505,714425 47630,-94893 110326,-180639 184798,-254264l97564 -96451 -54176 126111c-13427,31263 -24461,63768 -32863,97296 -8222,32828 -13962,66823 -17001,101791l-74 77 67 3c-464,5340 -816,9553 -989,11965 -365,5077 -630,9118 -765,11824 -1001,19909 -1101,39568 -336,58924 777,19707 2438,39172 4946,58351l5739 43948 -78842 -29145c-1686,4703 -3330,9425 -4940,14163 204266,308990 341767,665976 391816,1050478zm-2474785 -1840284l0 0c-14838,-10909 -30073,-21429 -45708,-31535 -60629,-39188 -115413,-84016 -164112,-133348 -309093,27085 -600922,114309 -863808,249820 -54077,19733 -116958,31170 -175706,28598 38689,7029 78174,11639 118296,13654 92977,4671 182226,22328 266085,51114 237903,-103326 497967,-165209 771109,-176471 67178,8353 122864,28253 180806,70799 -1280,-1213 -2563,-2419 -3849,-3622l-240 -227 -237 -221 -6 -3 -240 -227 -243 -224 -240 -224 -243 -227 -243 -224 -176 -166 -64 -58 -243 -227 -240 -224 -243 -227 -243 -221 -243 -227 -115 -109 -128 -115 -240 -224 -243 -224 -243 -224 -243 -227 -243 -224 -58 -51 -186 -173 -243 -224 -486 -448 -243 -224 -240 -221 -3 -3 -243 -224 -246 -224 -243 -221 -243 -224 -243 -224 -182 -166 -61 -58 -246 -224 -243 -224 -489 -445 -243 -221 -125 -112 -122 -112 -243 -224 -246 -224 -246 -221 -489 -445 -61 -54 -186 -170 -246 -221 -243 -224 -246 -221 -246 -221 -246 -224 -1664 -1500 -32 -26 -432 -387 -1065 -957 -202 -182 -867 -771 -838 -749 -230 -205 -1072 -950 -406 -362 -669 -589 -1043 -921 -29 -26 -1078 -947 -611 -537 -1548 -1350 -173 -154 -1584 -1376 -141 -125 -266 -230 -1085 -937 -381 -330 -707 -608 -1027 -886 -61 -51 -1091 -934 -589 -502 -502 -429 -1094 -931 -2191 -1859 -1097 -928 -355 -301 -745 -624 -1011 -851 -90 -74 -1104 -925 -566 -470 -541 -448 -1104 -921 -122 -99 -989 -819 -781 -643 -330 -272 -1113 -915 -330 -272 -784 -640 -106 -90 -2124 -1734 -544 -441 -576 -467 -1120 -905c-1494,-1209 -2995,-2412 -4498,-3612l-976 -781 -154 -122 -1133 -896 -1117 -886 -35 -26c-1123,-889 -2252,-1779 -3385,-2662l-1139 -889 -275 -218 -864 -672 -957 -745 -186 -141 -1145 -886c-1526,-1177 -3058,-2355 -4591,-3522l-1152 -880 -250 -189 -905 -685 -937 -710 -218 -166 -2316 -1740 -1158 -870 -3 0 -1161 -867 -1139 -848 -26 -19 -1165 -864 -221 -163 -947 -701 -32 -22 -1136 -838zm244660 14048c269620,30742 524194,111014 754467,231428 54656,41072 93309,86335 122435,152652 -659,-2214 -1328,-4428 -2003,-6638l-99 -317 -166 -547 -26 -83 -99 -317 -96 -317 -96 -314 -99 -317 -291 -947 -99 -317 -99 -317 -96 -314 -99 -317 -22 -74 -77 -243 -99 -314 -96 -317 -99 -314 -99 -317 -99 -314 0 -3 -99 -317 -102 -314 -96 -317 -99 -314 -102 -317 -74 -234 -26 -80 -99 -317 -99 -317 -102 -314 -99 -317 -99 -317 -51 -154 -51 -160 -99 -317 -102 -314 -99 -317 -102 -314 -99 -317 -29 -80 -74 -234 -102 -317 -202 -630 -102 -314 -102 -317 0 0 -445 -1369 -259 -803 -186 -563 -448 -1369 -80 -237 -371 -1129 -342 -1040 -112 -330 -454 -1366 -157 -470 -301 -896 -426 -1270 -32 -96 -461 -1366 -240 -704 -224 -659 -467 -1366 -48 -138 -422 -1225 -323 -937 -147 -426 -470 -1363 -131 -374 -346 -989 -410 -1171 -67 -192 -480 -1360 -214 -608 -269 -755 -483 -1360 -13 -45 -473 -1315 -486 -1360 -493 -1360 -99 -278 -394 -1081 -390 -1072 -106 -288 -496 -1356 -189 -509 -310 -848 -483 -1305 -19 -51 -505 -1356 -275 -745 -230 -611 -509 -1356 -67 -182 -445 -1171 -368 -976 -144 -378 -515 -1356 -160 -413 -45 -118 -688 -1795 -90 -230 -58 -147 -521 -1353 -250 -646 -275 -707 -528 -1350 -32 -86 -496 -1264 -531 -1353 -534 -1350 -125 -314 -410 -1033 -441 -1107 -96 -243 -541 -1347 -221 -550 -323 -797 -541 -1340 -3 -10 -547 -1344 -317 -781 -234 -566 -550 -1347 -93 -221 -461 -1123 -419 -1011 -138 -333 -560 -1344 -186 -454 -374 -889 -518 -1238 -45 -106 -566 -1344 -288 -681 -278 -659 -569 -1340 -54 -128 -518 -1213 -390 -912 -182 -429 -1133 -2627 -22 -51 -496 -1139 -86 -202 -582 -1337 -589 -1337c-7336,-16710 -15206,-33285 -23610,-49700 -32984,-64391 -58050,-130753 -75566,-197976 -266658,-124166 -560605,-199563 -870405,-214683 -57404,-9748 -118593,-31439 -168898,-63489 29980,25424 61858,49147 95581,70943 78327,50625 146897,110665 205197,177670zm1042790 412329c212600,157979 395236,354007 537855,577999 26650,62715 37415,121127 29500,192941l230 -963 74 -320 531 -2252 77 -320 74 -323 74 -320 77 -323 298 -1286 74 -320 77 -323 74 -323 74 -323 147 -643 74 -323 77 -320 70 -323 74 -323 38 -157 35 -166 74 -320 74 -323 74 -323 70 -323 74 -320 19 -80 54 -243 74 -323 70 -323 70 -323 74 -323 74 -320 0 -3 70 -323 70 -323 74 -323 74 -323 70 -323 51 -240 19 -80 70 -323 74 -326 70 -323 70 -320 70 -323 35 -163 35 -163 70 -323 70 -323 70 -323 70 -323 70 -323 19 -83 51 -240 70 -326 67 -323 70 -323 70 -323 70 -323 0 -3 298 -1404 176 -829 122 -579 298 -1411 51 -243 243 -1165 221 -1072 70 -339 288 -1411 573 -2825 282 -1411 3 -3c1030,-5183 2022,-10378 2966,-15590l160 -880 96 -541 493 -2751 16 -96 198 -1126 51 -294 250 -1427c330,-1900 653,-3801 969,-5704l237 -1427 467 -2860 230 -1430 74 -438 157 -992 42 -272 406 -2591 109 -688 115 -745 218 -1433 16 -96 202 -1340 141 -934 77 -499 211 -1436 205 -1385 16 -109 198 -1379 205 -1440 205 -1436 202 -1433 0 -6 202 -1440c198,-1440 394,-2879 585,-4322l144 -1088 45 -355 189 -1443 64 -489 122 -953 173 -1337 13 -106 179 -1446 179 -1446 179 -1446c176,-1446 349,-2895 518,-4345l45 -387 122 -1059 29 -246 138 -1203 163 -1452 74 -640 90 -809c2003,-18143 3474,-36433 4402,-54854 3618,-72063 15040,-141887 33397,-208697 -173502,-246730 -393463,-458418 -647161,-622367 -44511,-37057 -86290,-86133 -113657,-138697 13251,36999 28992,73471 47295,109197 42544,83053 71913,169381 88894,256602zm449022 3030166c-157979,212600 -354007,395236 -577999,537855 -62715,26650 -121127,37418 -192944,29500l234 58 90 19 320 77 323 77 320 77 320 74 323 77 154 38 166 38 323 74 320 77 323 77 320 77 323 74 74 16 246 61 320 74 323 77 323 74 323 74 314 74 6 0 323 77 320 74 323 74 643 150 237 51 86 19 323 77 320 74 646 147 320 74 157 35 1779 403 80 16 243 54 966 218 323 70 323 74 0 0 646 144 323 70 2748 605 160 35 323 74 646 138 326 70 323 70 83 19 240 51 323 70 323 70 649 138 323 70 3 0c1404,301 2812,598 4220,893l243 51 1168 243 1072 221 1747 358 489 99 182 38 2057 416 96 19 2147 429 678 134 1417 278 147 32 205 38 1977 384 61 13 441 86 1414 269 394 77 1027 195 1222 230 195 35 1420 269 633 118 784 144 1420 259 48 10 1372 250 883 160 541 99 1420 253 294 54 269 45 1990 352 294 54 1424 246 541 93 886 154 1376 234 51 10 1427 243 784 131 643 106 1427 237 195 35 1235 202 1033 170 397 64 1430 230 438 70 2009 317 262 42 150 26 1433 224 688 106 2179 336 93 13 2278 342 499 77 1436 211 342 51 64 10 2032 298 182 26 253 38 1436 205 589 83 851 122 1433 202 3 0 1443 198 835 115 605 83 1440 195 243 32 1200 160 1088 144 355 48 1440 186 493 64 2291 294 106 13 1446 182 739 93 707 86 1446 176 141 19 1305 157 989 118 461 54 1446 170 390 45 2115 246 186 19 208 26 2092 234 809 90c18143,2003 36436,3474 54854,4402 72063,3618 141884,15040 208694,33397 246736,-173505 458431,-393470 622379,-647177 37063,-44514 86156,-86293 138726,-113653 -37012,13251 -73496,28998 -109235,47307 -83053,42544 -169381,71916 -256602,88894zm-877763 697098c-237903,103326 -497967,165209 -771113,176468 -67175,-8353 -122864,-28253 -180803,-70796l170 163 67 61 240 227 240 227 240 227 240 227 240 224 115 109 125 118 243 227 240 227 240 224 240 227 240 227 58 51 186 173 240 227 243 224 240 227 477 448 6 3 1209 1126 176 166 64 58 969 899 243 227 115 109 125 115 243 224c2671,2470 5359,4924 8062,7368l3193 2870 205 182c1702,1520 3410,3036 5125,4546l26 26c2851,2511 5717,5004 8603,7480l58 51c1088,934 2182,1868 3276,2796l147 128 1747 1481 298 250c1651,1398 3308,2787 4972,4172l534 448 1107 921 122 99c1069,886 2140,1769 3212,2649l330 272 1779 1456 118 96 1664 1353 573 467 1120 905 93 77 1030 829 761 611 362 294 1126 902 304 243 822 656 976 781 154 122 1129 896 521 413 1625 1283 122 93 61 51 1072 845 739 579 400 310 1139 889 278 218 1820 1417 182 141 1145 886 496 384 80 61 1715 1321 32 22 3 3 1811 1385 19 16 435 330 1401 1069 905 685 937 710 218 166 1158 870 470 355 688 515 1161 870 0 0 1161 867 691 515c1225,912 2454,1820 3682,2726l38 29 253 186c14838,10909 30076,21429 45711,31535 60629,39188 115416,84019 164115,133351 309323,-27091 601376,-114380 864412,-250057 53946,-19595 116578,-30930 175105,-28361 -38692,-7032 -78180,-11642 -118302,-13658 -92977,-4671 -182226,-22324 -266085,-51111zm-1109613 164253c-269623,-30742 -524198,-111014 -754470,-231428 -54656,-41072 -93309,-86332 -122432,-152646l64 221 26 90 96 317 93 317 96 314 189 633 45 150 51 166 96 317 93 317 192 630 96 317 22 74 74 243 96 317 381 1257 3 6 96 314 96 317 99 317 96 317 96 314 582 1897 48 154 51 160c1110,3580 2243,7157 3398,10727 8849,27379 19039,54502 30594,81283l154 358c7947,18405 16543,36647 25789,54698 32984,64391 58050,130753 75563,197976 266645,124160 560573,199553 870357,214679 57452,9751 118699,31471 169029,63563 -30006,-25450 -61909,-49198 -95661,-71014 -78327,-50625 -146900,-110665 -205197,-177670zm-1042793 -412329c-212597,-157979 -395236,-354007 -537855,-578003 -26647,-62712 -37415,-121121 -29500,-192931l-54 224 -22 90 -77 323 -227 963 -77 320 -35 154 -419 1776 -16 74 -429 1849 -3 10 -426 1843 -19 86c-985,4297 -1939,8603 -2863,12922 -1104,5157 -2166,10330 -3183,15516l-29 147 -793 4101 -74 390 -426 2249 -38 195c-266,1420 -531,2838 -790,4261l-10 45c-256,1408 -509,2812 -761,4220l-51 291c-403,2259 -793,4517 -1181,6779l-10 51c-637,3753 -1254,7512 -1846,11281l-22 154c-1053,6680 -2032,13386 -2934,20111l-32 243c-3378,25146 -5736,50596 -7026,76305 -3622,72063 -15043,141884 -33397,208694 173470,246685 393383,458341 647023,622277 44594,37105 86457,86277 113845,138940 -11185,-31247 -24148,-62117 -38925,-92484l3 0c-2745,-5637 -5554,-11258 -8424,-16863 -42544,-83049 -71916,-169378 -88898,-256602zm-697095 -877763c-103326,-237903 -165213,-497970 -176471,-771116 8353,-67175 28256,-122861 70796,-180799l3 0 -163 173 -64 64 -227 243 -227 240 -227 237 -224 243 -227 240 -109 112 -118 128 -227 240 -227 240 -224 240 -227 243 -224 240 -51 54 -176 186 -227 243 -224 240 -227 240 -445 480 -6 3 -1126 1209 -163 176 -61 67 -899 969 -227 240 -106 118 -118 125 -224 243c-2467,2668 -4924,5356 -7365,8062 -5100,5643 -10135,11361 -15104,17148l-61 67c-3430,3996 -6830,8024 -10199,12090l-86 106c-889,1072 -1779,2147 -2665,3225l-256 317 -1347 1641 -109 134 -112 138c-912,1117 -1820,2236 -2729,3359l-58 70 -848 1049 -595 742 -310 384 -902 1126 -224 285 -675 845 -761 953 -141 176c-899,1129 -1795,2262 -2687,3398l-29 35c-886,1123 -1766,2249 -2646,3375l-198 253 -691 889 -723 931 -163 211 -886 1145 -362 467 -1404 1827 -3 3 -877 1145 -525 688 -355 464c-1171,1536 -2339,3074 -3503,4620l-326 438 -1388 1849 -26 35 -867 1161 -489 659 -58 77c-899,1213 -1798,2425 -2694,3644l-214 288c-10900,14825 -21409,30051 -31506,45673 -39188,60632 -84019,115416 -133354,164115 27088,309278 114354,601290 249996,864294 19631,53994 30991,116706 28409,175300 5938,-32655 10151,-65876 12535,-99567l0 3c441,-6255 822,-12528 1139,-18815 4671,-92977 22324,-182226 51111,-266085zm-164285 -1109584c30732,-269595 110992,-524143 231383,-754393 41091,-54710 86367,-93396 152726,-122541l-227 70 -90 26 -314 93 -317 96 -317 96 -317 93 -317 96 -147 45 -170 48 -314 96 -317 96 -317 96 -317 96 -317 93 -70 22 -243 74 -317 96 -317 96 -317 96 -314 96 -310 96 -6 3 -317 96 -317 96 -314 96 -317 96 -317 96 -230 70 -86 29 -317 96 -314 99 -317 96 -314 96 -320 99 -150 48 -163 51 -317 96 -314 99 -317 96 -317 99 -317 99 -74 22 -240 77 -317 99 -314 96 -317 99 -317 99 -310 99 -3 0 -317 99 -314 99 -317 99 -317 99 -314 102 -237 74 -80 26 -317 99 -314 99 -630 202 -317 99 -157 51 -160 51 -314 99 -317 102 -314 99 -317 102 -317 99 -77 26 -237 77 -314 102 -317 102 -317 99 -314 102 -317 102c-1369,441 -2735,889 -4105,1337l-234 77 -3868 1283 -470 154 -896 301 -1267 429 -99 32 -2067 701 -665 227 -1363 464 -134 48 -2166 742 -429 150 -3759 1308 -134 48 -195 67 -1360 480 -605 214 -758 269 -1360 483 -38 13 -1324 473 -832 301 -528 186 -1360 493 -269 99 -1088 394 -1069 390 -291 106c-1337,489 -2675,982 -4012,1478l-61 22c-1356,502 -2713,1008 -4069,1520l-173 64c-4271,1606 -8536,3250 -12791,4927l-80 29 -483 192 -3698 1468 -99 38 -253 99c-1340,537 -2681,1078 -4021,1622l-22 6c-1414,576 -2831,1155 -4245,1734l-1139 470 -995 410 -349 144c-1305,541 -2607,1088 -3913,1635l-118 48 -2009 848 -675 285 -1340 569 -112 51 -1229 525 -896 384 -445 189 -1340 576 -342 147 -995 432 -1126 489 -211 93 -1340 582 -569 250 -768 339c-16703,7333 -33272,15200 -49684,23604 -64372,32975 -130712,58034 -197912,75547 -124128,266549 -199537,560359 -214699,870030 -9723,57558 -31465,118958 -63627,169397l793 -934 218 -259 1011 -1200 246 -294 765 -909 1008 -1203 1005 -1203 170 -202 835 -1008 630 -755 374 -451 1001 -1213 86 -106 912 -1107 547 -665 451 -550 995 -1216 10 -13 982 -1206 467 -576 528 -646 150 -189 1721 -2131 106 -128 384 -480 601 -749 838 -1046 144 -182 982 -1232 1961 -2470 976 -1235 230 -291 745 -947 678 -864 294 -378 973 -1245 150 -195 819 -1049 51 -64 915 -1184 966 -1248 74 -96 889 -1155 518 -675 445 -579 960 -1254 0 0 957 -1257 937 -1232 19 -29 880 -1161 74 -99 953 -1264 950 -1264 800 -1069 147 -198 947 -1270 1888 -2543 941 -1273 765 -1040 176 -237 643 -877 294 -403 934 -1283 1862 -2566 931 -1286 64 -86 861 -1203 928 -1289 912 -1280 10 -16 921 -1292 416 -585 505 -713 835 -1181 80 -118 915 -1299 342 -486 573 -816 912 -1305 909 -1308 269 -381 640 -925 905 -1312 902 -1312 195 -285 707 -1030 608 -889 291 -426 899 -1321 122 -179 774 -1139 534 -790 358 -534c3356,-4975 6670,-9994 9940,-15056 50619,-78318 110646,-146878 177642,-205168zm412352 -1042819c157982,-212600 354013,-395236 578012,-537855 62715,-26650 121124,-37418 192934,-29500l-227 -58 -93 -19 -320 -77 -323 -77 -320 -77 -320 -74 -323 -77 -150 -38 -170 -38 -323 -74 -320 -77 -323 -77 -320 -77 -323 -74 -70 -16 -250 -61 -323 -74 -320 -77 -323 -74 -320 -74 -317 -74 -6 0 -320 -77 -323 -74 -323 -74 -323 -77 -320 -74 -237 -51 -86 -19 -320 -77 -323 -74 -646 -147 -320 -74 -157 -35 -166 -38 -323 -70 -1289 -294 -77 -16 -246 -54 -643 -147 -323 -70 -323 -70 -320 -74 -3 0 -323 -74 -323 -70 -323 -70 -646 -144 -240 -54 -1699 -374 -160 -32 -163 -35 -323 -74 -649 -138 -320 -70 -326 -70 -80 -19 -243 -51 -323 -70 -323 -70 -326 -70 -323 -67 -323 -70 -2233 -473 -582 -125 -1408 -294 -243 -51 -1168 -243 -1069 -221 -342 -70 -1408 -288 -486 -99 -928 -189 -1312 -266 -99 -19 -1414 -285 -729 -144 -685 -134 -1414 -278 -144 -32 -1270 -246 -976 -189 -441 -86 -1417 -269 -387 -77 -1030 -195 -1219 -230 -198 -35 -1417 -269 -637 -118 -784 -144 -2454 -451 -387 -67 -880 -160 -544 -99 -1424 -253 -288 -54 -1133 -198 -1126 -198 -298 -54 -1427 -246 -534 -93 -889 -154 -1372 -234 -54 -10 -1427 -243 -781 -131 -646 -106 -1427 -237 -192 -35 -1238 -202 -1030 -170 -400 -64 -1430 -230 -438 -70 -1891 -301 -378 -58 -154 -26 -1433 -224 -685 -106 -48 -6 -2134 -330 -93 -13 -2275 -342 -502 -77 -1436 -211 -339 -51 -1097 -160 -1181 -173 -256 -38 -1436 -205 -589 -83 -848 -122 -1433 -202 -6 0 -1440 -198 -838 -115 -605 -83 -1440 -195 -240 -32 -1200 -160 -1088 -144 -355 -48 -1443 -186 -489 -64 -6 0 -2284 -294 -109 -13 -1446 -182 -736 -93 -707 -86 -1446 -176 -141 -19 -1308 -157 -989 -118 -457 -54 -1449 -170 -390 -45 -2086 -240 -211 -26 -211 -26 -2089 -234 -813 -90c-18140,-2003 -36430,-3478 -54851,-4402 -72073,-3618 -141900,-15043 -208716,-33403 -246627,173444 -458235,393313 -622146,646895 -37108,44639 -86319,86556 -139027,113973 37041,-13261 73557,-29017 109325,-47339 83046,-42540 169372,-71913 256593,-88894zm6971434 1442473l-447851 -63547 0 -795840 447851 0 0 859386zm453900 233002l0 -2118206 1600762 0 0 393383 -1113573 0 0 1331443 1152908 0 0 393380 -1640097 0zm450877 -883595l0 -381277 1019765 0 0 381277 -1019765 0zm2608421 919907c-167439,0 -322270,-27235 -464493,-81699 -142223,-54470 -265282,-131128 -369175,-229978 -103893,-98851 -184587,-214846 -242081,-347992 -57494,-133143 -86242,-278393 -86242,-435745 0,-157352 28748,-302601 86242,-435745 57494,-133143 138694,-249142 243594,-347992 104903,-98851 227960,-175508 369171,-229975 141215,-54467 294536,-81703 459957,-81703 167439,0 321259,27235 461467,81703 140204,54467 262256,131125 366145,229975 103896,98851 185093,214344 243594,346479 58505,132136 87756,277890 87756,437258 0,157352 -29251,303107 -87756,437258 -58502,134154 -139699,250153 -243594,347992 -103889,97840 -225941,173995 -366145,228465 -140207,54464 -293020,81699 -458440,81699zm-3026 -417589c94813,0 182066,-16137 261750,-48414 79684,-32277 149786,-78676 210306,-139196 60520,-60520 107425,-132139 140710,-214849 33285,-82710 49931,-174497 49931,-275366 0,-100866 -16646,-192656 -49931,-275366 -33285,-82710 -79684,-154326 -139196,-214846 -59512,-60520 -129615,-106919 -210306,-139196 -80695,-32280 -168450,-48417 -263263,-48417 -94813,0 -182066,16137 -261750,48417 -79687,32277 -149789,78676 -210309,139196 -60520,60520 -107421,132136 -140710,214846 -33285,82710 -49928,174500 -49928,275366 0,98851 16643,190135 49928,273856 33288,83718 79687,155839 139196,216359 59512,60520 129615,106919 210309,139196 80695,32277 168450,48414 263263,48414zm1528133 381277l0 -2118206 405486 0 1249743 1525109 -196690 0 0 -1525109 484162 0 0 2118206 -402460 0 -1252770 -1525109 196690 0 0 1525109 -484162 0zm2445019 0l0 -2118206 1600759 0 0 393383 -1113573 0 0 1331443 1152911 0 0 393380 -1640097 0zm450874 -883595l0 -381277 1019765 0 0 381277 -1019765 0zm1579580 883595l0 -2118206 490212 0 0 1718773 1062129 0 0 399433 -1552341 0zm-15857077 -508672l0 61371c0,125244 26,259971 28425,401228l118 617 375842 208815 -61 -144c-71740,-170747 -71807,-296795 -71807,-484668l0 -47096 -332518 -140124zm51210 555387c83596,286215 303692,595707 883291,905289 -243028,-308997 -387900,-513810 -474299,-673340l-408992 -231949zm5163181 1107213c0,0 0,0 0,0 0,0 0,0 0,0l0 -664952c0,0 0,0 0,0 0,0 0,0 0,0l437885 0c0,0 0,0 0,0 0,0 0,0 0,0l0 117016c0,0 0,0 0,0 0,0 0,0 0,0l-307400 0 0 430920 319474 0c0,0 0,0 0,0 0,0 0,0 0,0l0 117016c0,0 0,0 0,0 0,0 0,0 0,0l-449959 0zm83120 -289753l0 -109123 294402 0c0,0 0,0 0,0 0,0 0,0 0,0l0 109123c0,0 0,0 0,0 0,0 0,0 0,0l-294402 0zm823299 306472c-98444,-310 -181564,-32504 -249513,-96432 -67952,-63924 -102002,-148282 -102002,-253227 0,-102155 33896,-185896 101538,-251058 67639,-65166 152617,-97670 255083,-97670 36839,0 69497,3404 97980,10218 28480,6808 55101,17023 79869,30646 24765,13619 45196,27859 61291,42873 16099,15014 24148,22600 24148,22600 0,0 0,0 0,0l-83584 90085c0,0 0,0 0,0 0,0 -5416,-5263 -16406,-15632 -10989,-10372 -24458,-20123 -40400,-29411 -15942,-9287 -33743,-16563 -53402,-21822 -19656,-5266 -42256,-7896 -67639,-7896 -66557,0 -120423,20430 -161751,61448 -41328,41018 -62069,96739 -62069,167014 0,69961 21051,125529 62996,166857 41949,41325 93492,62069 154786,62069 59436,0 108192,-15324 146270,-45973 38078,-30646 58665,-69961 61758,-117944l-194099 0c0,0 0,0 0,0 0,0 0,0 0,0l0 -109123c0,0 0,0 0,0 0,0 0,0 0,0l325047 0c0,0 157,0 310,0 154,0 0,0 -310,0l464 76155c0,93799 -31730,169951 -95347,228459 -63614,58508 -145342,87765 -245021,87765zm735070 -931c-87919,0 -155250,-23681 -201994,-70889 -46744,-47208 -70115,-113148 -70115,-197970l0 -411881c0,0 0,0 0,0 0,0 0,0 0,0l130945 0c0,0 0,0 0,0 0,0 0,0 0,0l0 409559c0,48603 12074,85753 36219,111446 24148,25693 59749,38541 106801,38541 47365,0 83120,-12538 107111,-37614 23991,-25076 35912,-62533 35912,-112374l0 -409559c0,0 0,0 0,0 0,0 0,0 0,0l127698 0c0,0 0,0 0,0 0,0 0,0 0,0l0 411881c0,85132 -24922,151225 -74917,198277 -49995,47058 -115935,70582 -197659,70582zm443922 -15788c0,0 0,0 0,0 0,0 0,0 0,0l0 -664952c0,0 0,0 0,0 0,0 0,0 0,0l257252 0c72748,0 129400,18575 169797,55725 40400,37147 60520,89310 60520,156485 0,65937 -22907,117790 -68723,155714 -45816,37921 -100764,56959 -164845,56959l-195957 0 0 -99836 177383 0c35601,0 64388,-9287 86213,-27706 21825,-18421 32661,-44889 32661,-79559 0,-35291 -10526,-61294 -31730,-78011 -21208,-16719 -49377,-25076 -84358,-25076l-107268 0 0 550255c0,0 0,0 0,0 0,0 0,0 0,0l-130945 0zm393770 0c0,0 0,0 0,0 0,0 0,0 0,0l-209423 -288825 143019 -5109 221497 293935c0,0 0,0 0,0 0,0 0,0 0,0l-155093 0zm196885 0c0,0 0,0 0,0 0,0 0,0 0,0l268395 -664952c0,0 0,0 0,0 0,0 0,0 0,0l119339 0c0,0 0,0 0,0 0,0 0,0 0,0l267934 664952c0,0 0,0 0,0 0,0 0,0 0,0l-138377 0c0,0 0,0 0,0 0,0 0,0 0,0l-158811 -416987 -30646 -87762 -3250 0 -28790 87298 -158344 417451c0,0 0,0 0,0 0,0 0,0 0,0l-137449 0zm121197 -134660l37147 -107268 334335 0 38541 107268 -410023 0zm651022 134660c0,0 0,0 0,0 0,0 0,0 0,0l0 -664952c0,0 0,0 0,0 0,0 0,0 0,0l132804 0c0,0 0,0 0,0 0,0 0,0 0,0l301830 451814 3250 0 -5573 -98905 0 -352910c0,0 0,0 0,0 0,0 0,0 0,0l125376 0c0,0 0,0 0,0 0,0 0,0 0,0l0 664952c0,0 0,0 0,0 0,0 0,0 0,0l-117016 0c0,0 0,0 0,0 0,0 0,0 0,0l-316227 -456924 -3250 0 4181 92871 0 364053c0,0 0,0 0,0 0,0 0,0 0,0l-125376 0zm1055472 16255c-106180,0 -191466,-32351 -256011,-96896 -64545,-64545 -96896,-148592 -96896,-252299 0,-101228 34206,-184658 102622,-250130 68413,-65473 152771,-98134 253070,-98134 32504,0 62996,3561 91479,10682 28480,7118 55411,18108 80797,32968 25383,14857 45506,29564 60367,44114 14857,14550 22286,21822 22286,21822 0,0 0,0 0,0l-84511 91012c0,0 0,0 0,0 0,0 -5106,-5260 -15478,-15788 -10372,-10522 -23681,-20741 -39780,-30646 -16095,-9908 -33279,-17644 -51700,-23063 -18418,-5416 -40087,-8049 -64852,-8049 -60056,0 -111600,20744 -154629,62225 -43030,41482 -64545,96118 -64545,163914 0,66868 21205,121044 63614,162679 42412,41638 93492,62533 153238,62533 23220,0 45196,-2940 65940,-8820 20741,-5883 40243,-14550 58508,-25850 18265,-11300 33279,-22753 45042,-34363 11764,-11607 17644,-17334 17644,-17334 0,0 0,0 0,0l86834 84511c0,0 0,0 0,0 0,0 -7585,8513 -22907,25693 -15324,17180 -36839,33899 -64548,50148 -27702,16252 -57113,28483 -88226,36686 -31113,8203 -63614,12384 -97360,12384zm-8356 214529c-22600,0 -42256,-5416 -58972,-16099 -16719,-10679 -30185,-27549 -40400,-50769 0,0 0,0 0,0 0,0 0,0 0,0l56185 -25540c0,0 0,0 0,0 0,0 0,0 0,0 4956,12074 11146,20434 18421,25076 7272,4642 14857,6965 22907,6965 11453,0 20741,-3871 27706,-11453 6968,-7582 10372,-16563 10372,-27088 0,-10526 -3714,-19656 -11143,-27242 -7429,-7582 -16719,-11300 -27862,-11300 -5573,0 -10836,1085 -15942,3250 -5109,2169 -10836,6658 -17026,13469 0,0 0,0 0,0 0,0 0,0 0,0l-53402 -22292c0,0 0,0 0,0 0,0 0,0 0,0l38541 -88690 61758 0 -22289 42256c3097,-928 6658,-1702 10682,-2319 4025,-621 8203,-931 12538,-931 25383,0 47055,8824 65009,26467 17954,17647 26931,40400 26931,68262 0,26931 -9905,49995 -29718,69187 -19813,19192 -44578,28790 -74296,28790zm336190 -230784c0,0 0,0 0,0 0,0 0,0 0,0l268398 -664952c0,0 0,0 0,0 0,0 0,0 0,0l119339 0c0,0 0,0 0,0 0,0 0,0 0,0l267931 664952c0,0 0,0 0,0 0,0 0,0 0,0l-138377 0c0,0 0,0 0,0 0,0 0,0 0,0l-158808 -416987 -30649 -87762 -3250 0 -28790 87298 -158344 417451c0,0 0,0 0,0 0,0 0,0 0,0l-137449 0zm121197 -134660l37147 -107268 334335 0 38541 107268 -410023 0zm901309 134660c0,0 0,0 0,0 0,0 0,0 0,0l0 -664952c0,0 0,0 0,0 0,0 0,0 0,0l271645 0c65940,0 119031,19659 159118,59129 40090,39469 60056,93799 60056,162832 0,71510 -20741,127698 -62222,168562 -41482,40861 -98134,61291 -169954,61291l-182492 0 0 -111446 165776 0c36839,0 65319,-9595 85439,-28633 20123,-19039 30185,-47055 30185,-84201 0,-36529 -10372,-64545 -31266,-83894 -20898,-19346 -48757,-28944 -83430,-28944l-111910 0 0 550255c0,0 0,0 0,0 0,0 0,0 0,0l-130945 0zm627341 0c0,0 0,0 0,0 0,0 0,0 0,0l0 -664952c0,0 0,0 0,0 0,0 0,0 0,0l437885 0c0,0 0,0 0,0 0,0 0,0 0,0l0 117016c0,0 0,0 0,0 0,0 0,0 0,0l-307403 0 0 430920 319474 0c0,0 0,0 0,0 0,0 0,0 0,0l0 117016c0,0 0,0 0,0 0,0 0,0 0,0l-449956 0zm83120 -289753l0 -109123 294398 0c0,0 0,0 0,0 0,0 0,0 0,0l0 109123c0,0 0,0 0,0 0,0 0,0 0,0l-294398 0zm513109 289753c0,0 0,0 0,0 0,0 0,0 0,0l0 -664952c0,0 0,0 0,0 0,0 0,0 0,0l257252 0c72748,0 129400,18575 169797,55725 40400,37147 60520,89310 60520,156485 0,65937 -22907,117790 -68723,155714 -45816,37921 -100764,56959 -164845,56959l-195957 0 0 -99836 177383 0c35601,0 64388,-9287 86213,-27706 21825,-18421 32661,-44889 32661,-79559 0,-35291 -10526,-61294 -31730,-78011 -21208,-16719 -49377,-25076 -84358,-25076l-107268 0 0 550255c0,0 0,0 0,0 0,0 0,0 0,0l-130945 0zm393770 0c0,0 0,0 0,0 0,0 0,0 0,0l-209423 -288825 143019 -5109 221497 293935c0,0 0,0 0,0 0,0 0,0 0,0l-155093 0zm269326 0c0,0 0,0 0,0 0,0 0,0 0,0l0 -664952c0,0 0,0 0,0 0,0 0,0 0,0l131409 0c0,0 0,0 0,0 0,0 0,0 0,0l0 664952c0,0 0,0 0,0 0,0 0,0 0,0l-131409 0zm316224 0c0,0 0,0 0,0 0,0 0,0 0,0l0 -664952c0,0 0,0 0,0 0,0 0,0 0,0l160199 0c0,0 0,0 0,0 0,0 0,0 0,0l214996 515432 3250 0 215460 -515432c0,0 0,0 0,0 0,0 0,0 0,0l152771 0c0,0 0,0 0,0 0,0 0,0 0,0l0 664952c0,0 0,0 0,0 0,0 0,0 0,0l-125376 0c0,0 0,0 0,0 0,0 0,0 0,0l0 -341760 4181 -124448 -3250 0 -191779 466208c0,0 0,0 0,0 0,0 0,0 0,0l-110979 0c0,0 0,0 0,0 0,0 0,0 0,0l-195957 -467603 -3250 0 5109 125843 0 341760c0,0 0,0 0,0 0,0 0,0 0,0l-125376 0zm931491 0c0,0 0,0 0,0 0,0 0,0 0,0l0 -664952c0,0 0,0 0,0 0,0 0,0 0,0l437885 0c0,0 0,0 0,0 0,0 0,0 0,0l0 117016c0,0 0,0 0,0 0,0 0,0 0,0l-307403 0 0 430920 319477 0c0,0 0,0 0,0 0,0 0,0 0,0l0 117016c0,0 0,0 0,0 0,0 0,0 0,0l-449959 0zm83120 -289753l0 -109123 294398 0c0,0 0,0 0,0 0,0 0,0 0,0l0 109123c0,0 0,0 0,0 0,0 0,0 0,0l-294398 0zm657059 289753c0,0 0,0 0,0 0,0 0,0 0,0l0 -607372 130945 0 0 607372c0,0 0,0 0,0 0,0 0,0 0,0l-130945 0zm-203850 -545613c0,0 0,0 0,0 0,0 0,0 0,0l0 -119339c0,0 0,0 0,0 0,0 0,0 0,0l538649 0c0,0 0,0 0,0 0,0 0,0 0,0l0 119339c0,0 0,0 0,0 0,0 0,0 0,0l-538649 0zm663557 545613c0,0 0,0 0,0 0,0 0,0 0,0l0 -664952c0,0 0,0 0,0 0,0 0,0 0,0l257252 0c72748,0 129400,18575 169800,55725 40397,37147 60517,89310 60517,156485 0,65937 -22907,117790 -68723,155714 -45816,37921 -100764,56959 -164845,56959l-195954 0 0 -99836 177379 0c35601,0 64391,-9287 86217,-27706 21825,-18421 32658,-44889 32658,-79559 0,-35291 -10526,-61294 -31730,-78011 -21205,-16719 -49377,-25076 -84358,-25076l-107265 0 0 550255c0,0 0,0 0,0 0,0 0,0 0,0l-130949 0zm393770 0c0,0 0,0 0,0 0,0 0,0 0,0l-209420 -288825 143019 -5109 221497 293935c0,0 0,0 0,0 0,0 0,0 0,0l-155097 0zm196885 0c0,0 0,0 0,0 0,0 0,0 0,0l268398 -664952c0,0 0,0 0,0 0,0 0,0 0,0l119339 0c0,0 0,0 0,0 0,0 0,0 0,0l267931 664952c0,0 0,0 0,0 0,0 0,0 0,0l-138377 0c0,0 0,0 0,0 0,0 0,0 0,0l-158808 -416987 -30649 -87762 -3250 0 -28790 87298 -158344 417451c0,0 0,0 0,0 0,0 0,0 0,0l-137449 0zm121197 -134660l37147 -107268 334335 0 38541 107268 -410023 0zm651022 134660c0,0 0,0 0,0 0,0 0,0 0,0l0 -664952c0,0 0,0 0,0 0,0 0,0 0,0l130949 0c0,0 0,0 0,0 0,0 0,0 0,0l0 545613 294862 0c0,0 0,0 0,0 0,0 0,0 0,0l0 119339c0,0 0,0 0,0 0,0 0,0 0,0l-425811 0z"/>
 </g>
</svg>
