<?xml version="1.0" encoding="UTF-8"?>
<!DOCTYPE svg PUBLIC "-//W3C//DTD SVG 1.1//EN" "http://www.w3.org/Graphics/SVG/1.1/DTD/svg11.dtd">
<!-- Creator: CorelDRAW 2026 -->
<svg xmlns="http://www.w3.org/2000/svg" xml:space="preserve" width="40cm" height="26.1162cm" version="1.1" style="shape-rendering:geometricPrecision; text-rendering:geometricPrecision; image-rendering:optimizeQuality; fill-rule:evenodd; clip-rule:evenodd"
viewBox="0 0 2795983 1825510"
 xmlns:xlink="http://www.w3.org/1999/xlink"
 xmlns:xodm="http://www.corel.com/coreldraw/odm/2003">
 <defs>
  <style type="text/css">
   <![CDATA[
    .fil0 {fill:#E6E6E6;fill-rule:nonzero}
   ]]>
  </style>
 </defs>
 <g id="Camada_x0020_1">
  <metadata id="CorelCorpID_0Corel-Layer"/>
  <path class="fil0" d="M1397991 0c349474,0 632778,283304 632778,632778 0,349474 -283304,632778 -632778,632778 -349474,0 -632778,-283304 -632778,-632778 0,-349473 283304,-632778 632778,-632778zm198202 1498473c-52027,0 -100834,39727 -108882,88566l-24705 149905c-8048,48839 27662,88566 79689,88566l143517 0c52028,0 100834,-39727 108883,-88566l24705 -149905c8048,-48839 -27662,-88566 -79689,-88566l-143518 0zm744742 0l-53898 327036 81755 0 53898 -327036 -81755 0zm230708 0c-52027,0 -100834,39727 -108882,88566l-24705 149905c-8048,48839 27662,88566 79689,88566l143518 0c52027,0 100834,-39727 108881,-88566l24706 -149905c8048,-48839 -27662,-88566 -79690,-88566l-143517 0zm5204 58946l113684 0c14599,0 24579,11989 22165,26630l-25694 155887c-2414,14641 -16346,26630 -30944,26630l-113680 -3c-14598,0 -24579,-11989 -22165,-26630l25694 -155887c2414,-14642 16346,-26631 30944,-26631l-3 4zm-621710 -58946l-53898 327036 80558 0 44283 -268691 157544 0c15467,0 25968,12615 23410,28125l-3452 20945c-2555,15510 -17215,28125 -32682,28125l-81158 0c-4570,380 -9079,2027 -13371,5089 -11446,8164 -15525,23084 -9054,33213l97682 153194 79370 0 -88012 -137637 24466 0c19408,229 40132,-5941 58653,-19150 23395,-16682 38558,-40900 43324,-65525l3058 -18550c2913,-18930 -376,-37983 -10520,-53858 -13462,-21072 -36228,-32022 -61212,-32315l-258989 0zm-267804 -117589l-105564 42542 -5630 45785 100822 -39973 93727 40932 6586 -46744 -89941 -42542zm-871982 117589l-9420 57148 92496 0 -44482 269885 81755 3 44483 -269885 92492 -3 9420 -57148 -266744 0zm-250040 0c-45393,0 -88461,37060 -95963,82580l-26728 162173c-7502,45521 23395,82284 68790,82284l217221 0 9666 -58646 -197524 0c-12337,0 -20768,-9771 -18727,-22140l8826 -53558 219898 0 9615 -58346 -219899 -3 8826 -53558c2038,-12372 13741,-22440 26077,-22440l197524 0 9615 -58345 -217218 0zm-511413 0l-53898 327036 82349 0 38070 -230991 86167 149605 134915 -150205 -39123 231588 80138 3 53898 -327036 -94845 0 -123053 144219 -78387 -144219 -86232 0zm1391654 104773l-41 247 41 -247 10 -50 3058 -18550c2913,-18930 -377,-37983 -10516,-53858 -13462,-21072 -36228,-32022 -61212,-32315l-258993 0 -53898 327036 80561 0 44283 -268691 157544 0c15467,0 25968,12615 23414,28125l-3452 20945c-2555,15510 -17215,28125 -32682,28125l-81162 0c-4571,380 -9079,2027 -13372,5089 -11446,8164 -15524,23084 -9054,33213l97683 153194 79367 0 -88013 -137637 24466 0c19408,229 40133,-5941 58654,-19150 23379,-16671 38537,-40867 43314,-65476zm155845 -45827l113680 0c14598,0 24579,11989 22165,26630l-25694 155887c-2414,14641 -16346,26630 -30944,26630l-113677 -3c-14598,0 -24579,-11989 -22165,-26630l25694 -155887c2414,-14642 16346,-26631 30944,-26631l-3 4zm-555448 -1235670l-99776 611150 190441 0 54188 -343782 134464 241799 210442 -241799 -56779 343782 186420 0c2110,-3344 3711,-6035 5893,-9107 76414,-104837 182717,-184271 305082,-227811 -103302,10268 -202598,45312 -289464,102153l76067 -476385 -211437 0 -191886 227414 -129106 -227414 -184547 0z"/>
 </g>
</svg>
