<?xml version="1.0" encoding="UTF-8"?>
<!DOCTYPE svg PUBLIC "-//W3C//DTD SVG 1.1//EN" "http://www.w3.org/Graphics/SVG/1.1/DTD/svg11.dtd">
<!-- Creator: CorelDRAW 2026 -->
<svg xmlns="http://www.w3.org/2000/svg" xml:space="preserve" width="40cm" height="23.7076cm" version="1.1" style="shape-rendering:geometricPrecision; text-rendering:geometricPrecision; image-rendering:optimizeQuality; fill-rule:evenodd; clip-rule:evenodd"
viewBox="0 0 2795982 1657150"
 xmlns:xlink="http://www.w3.org/1999/xlink"
 xmlns:xodm="http://www.corel.com/coreldraw/odm/2003">
 <defs>
  <style type="text/css">
   <![CDATA[
    .fil0 {fill:#E6E6E6}
   ]]>
  </style>
 </defs>
 <g id="Camada_x0020_1">
  <metadata id="CorelCorpID_0Corel-Layer"/>
  <path class="fil0" d="M2090091 1468051c-4929,17199 -19154,24575 -42254,26091l-132 13c-2434,0 -4884,0 -7859,0l-35473 0 15799 -54686 27533 0 132 0 14180 0c20711,0 33507,9358 28074,28583zm-1253009 -1198088l1114295 0 0 -269963 -1114295 0 0 269963zm897399 254118c0,18795 -16559,55760 -67060,55760l-11180 0 -78257 0c0,0 24967,-89845 25463,-92105l52794 -4 34982 0c41597,0 43258,28293 43258,36350zm-461346 5784c-5090,20187 -23976,33515 -48733,33515l-69539 0 -29896 0 21456 -76133 8440 0 84462 0c13093,0 25331,5979 31322,16431 4540,7937 4677,17494 2487,26186zm-63391 191103c-9086,5793 -22715,10251 -43700,10271l-11180 0 -78037 0c0,0 25624,-88701 25666,-88812l52372 0 27955 0c7296,0 15861,103 23744,1871 15853,3549 25628,14568 26302,30715 735,17737 -7995,36304 -23121,45955zm965496 738180l393 -835c744,-1574 1153,-2884 1590,-4545 5830,-20348 5916,-36833 -1590,-49091l-393 -640c-11804,-19212 -41845,-28132 -97493,-28132l-29909 0 -132 0 -99447 0 -77848 273830 89622 0 27624 -95486 27095 0c16704,0 27124,1938 32953,6355l132 103c9226,6907 7739,19707 1355,41262 -438,1810 -876,3206 -1355,4578l-132 393c-5830,21658 -7859,37416 -7363,42795l7363 0 132 0 83603 0 1954 -8338c-10321,0 -5875,-11849 4458,-47766 15815,-55165 0,-62073 -25596,-72919 32491,-8354 53711,-32458 62982,-61565zm-407730 2491c-4342,15436 -19138,23335 -36875,23625l-1037 17 -22183 0 -14808 0 12841 -45811 1967 0 23219 0 6326 0c19195,0 36424,512 30549,22170zm-18233 98964c-3091,11283 -9751,17712 -18642,21253 -6664,2652 -14576,3673 -23219,3904 -1459,0 -2975,0 -4434,0l-38898 0 14328 -50282 28508 0c0,0 0,0 496,0 8643,0 16572,129 23219,1017 14940,1983 23406,7755 18642,24108zm15753 -184699l-34395 0 -23219 0 -73840 0 -77831 273830 133917 0c13775,0 27331,-785 40973,-2814 50154,-7432 86664,-30520 100394,-79421 8395,-30025 0,-55648 -27591,-63011 20728,-10841 44861,-31553 52719,-59598 15246,-54669 -29500,-68985 -91127,-68985zm-324549 135434c-9792,35961 -27561,64540 -54161,74889l-17 0c-6862,2479 -14266,3950 -22195,3950 -42783,0 -41308,-43828 -30991,-78835 7887,-28074 25116,-60578 53186,-71874l17 0c6413,-2491 13308,-3966 21150,-3966 39891,-930 43857,38424 33011,75835zm-13291 -142792c-13774,0 -27561,1500 -40870,4446l-17 0c-67498,14762 -122634,65445 -143288,137400 -26149,93544 16238,146759 101955,146759 14266,0 28058,-1500 41332,-4475l17 0c65007,-14762 122142,-63969 144250,-141333 20729,-72386 -5363,-142796 -103381,-142796zm-314199 99505c-4941,17199 -19171,24575 -42258,26091l-145 13c-2446,0 -4884,0 -7842,0l-35457 0 15754 -54686 27545 0 148 0 14134 0c20712,0 33524,9358 28120,28583zm-12333 -92147l-29921 0 -148 0 -98948 0 -67489 237844 -21 58 -10304 35928 10304 0 21 0 79880 0 26505 -95486 27046 0c16786,0 27120,1938 33007,6355l148 120c9222,6891 7739,19704 1322,41246 -363,1810 -843,3206 -1326,4578l-145 393c-5375,21658 -7842,37416 -7330,42795l7330 0 148 0 83587 0 2479 -8338c-10816,0 -6429,-11849 3950,-47766 15771,-55165 0,-62073 -25608,-72919 34470,-8862 55620,-35432 64978,-66944 14791,-53231 -7858,-77864 -99464,-77864zm-196527 35974l21 -74 10333 -35900 -10333 0 -21 0 -241293 0 -20191 71932 80805 0 -57669 201899 89652 0 57611 -201899 80782 0 10304 -35958zm1890738 43332c6809,-47765 -16791,-86664 -92540,-86664 -69026,0 -127620,29078 -143846,87656 -30082,104401 135901,75835 124068,117680 -3425,12783 -20699,20216 -42808,20216 -8879,0 -17770,-2446 -23628,-6891 -6454,-4913 -9883,-11808 -8904,-21633l-86169 0c-11849,49265 23100,91577 95539,91577 75356,0 137342,-31028 155125,-94577 28583,-99464 -136438,-74319 -124617,-115234 2491,-9837 12783,-15754 33028,-15754 8350,-3 16163,1483 21642,4954 5466,3442 8850,9329 7391,18671l85719 0zm-2579719 13279c-6371,22051 -22004,30970 -40593,32036l-247 13 0 45 -41415 -161 16832 -60954 24587 0 244 0 756 0c19154,0 46749,3512 39836,29020zm-4924 -92585l-35668 0 -247 0 -96022 0 -78286 273830 90114 0 24112 -85194 45382 0c4933,0 9788,0 14704,-467l0 -17 244 -13c69774,-4474 110562,-40431 126294,-95993 15767,-56173 -11808,-92147 -90626,-92147zm2130271 180794l-231 0 -28103 0 28103 -50228 231 -380 27359 -47893 975 98501 -28334 0zm5668 -180794l-5668 8573 -231 347 -164632 255960 -393 612 -5379 8338 5379 0 393 0 82396 0 20683 -35928 61553 0 231 0 27826 0 0 35928 89651 0 -20158 -273830 -91652 0zm-2041355 273830l229006 0 18241 -63974 -139420 0 12341 -42894 113272 0 18207 -63986 -113276 0 11337 -39411 133492 0 18204 -63565 -223610 0 -77794 273830zm765927 -538752l315584 0 344315 0 220760 0 0 -706032 -220760 0 -10180 0c21286,508 47488,3925 69795,17055 34259,20174 49724,59214 45547,97799 -2128,19617 -8990,37342 -16952,50690 -12478,20894 -43626,53484 -79525,63185 18700,0 40638,14923 42121,48017 438,9445 5482,138318 5482,138318l-112057 24 -3950 -114829c-843,-9371 1095,-27376 -14675,-37412 -6838,-4343 -16965,-7202 -32110,-7202l-68911 0 -44105 156142 -120672 0 119217 -411788 -123341 0 -135537 0c35473,830 83495,9478 108396,39820 30392,37015 20918,83025 8701,108425 -2375,4925 -21526,38424 -54438,53702 2884,826 29430,17799 38494,45849 8535,26388 4569,59962 -6776,85239 -13073,29128 -36978,52376 -67489,64242 -20435,7945 -51029,13684 -101893,13684l-20915 0 -222317 0 118804 -410962 -147200 0 -67056 0 0 706032 67056 0 166585 0z"/>
 </g>
</svg>
